<svg width="10" height="6" viewBox="0 0 10 6" fill="none" xmlns="http://www.w3.org/2000/svg">
<path d="M4.92654 3.89843L8.58354 0.241428C8.65009 0.16834 8.73064 0.109349 8.8204 0.0679454C8.91016 0.0265419 9.00732 0.00356794 9.10612 0.000383561C9.20492 -0.00280082 9.30336 0.0138691 9.3956 0.0494064C9.48784 0.0849438 9.57202 0.138626 9.64314 0.207276C9.71427 0.275926 9.7709 0.358148 9.80968 0.449074C9.84846 0.540001 9.86861 0.637784 9.86892 0.736635C9.86924 0.835486 9.84972 0.933396 9.81152 1.02457C9.77332 1.11574 9.71722 1.19832 9.64654 1.26743L9.62854 1.28543L5.44954 5.46543C5.31095 5.60399 5.12301 5.68182 4.92704 5.68182C4.73107 5.68182 4.54312 5.60399 4.40454 5.46543L0.225536 1.28643C0.155739 1.21899 0.0999066 1.13847 0.0612278 1.04946C0.022549 0.960451 0.00178107 0.864693 0.000109618 0.767656C-0.00156184 0.670619 0.015896 0.574202 0.0514863 0.483912C0.0870766 0.393622 0.140102 0.311225 0.207536 0.241428C0.27497 0.17163 0.355491 0.115798 0.444502 0.0771194C0.533513 0.0384406 0.629271 0.0176726 0.726308 0.0160012C0.823346 0.0143297 0.919762 0.0317875 1.01005 0.0673779C1.10034 0.102968 1.18274 0.155994 1.25254 0.223428L1.27054 0.241428L4.92654 3.89843Z" fill="#032556"/>
</svg>
