<svg width="307" height="639" viewBox="0 0 307 639" fill="none" xmlns="http://www.w3.org/2000/svg">
<g clip-path="url(#clip0_237_42)">
<rect width="306.464" height="638.741" rx="49.9789" fill="#D9D9D9"/>
</g>
<rect x="3.84454" y="4.11914" width="298.775" height="630.635" rx="45.0359" fill="white"/>
<g clip-path="url(#clip1_237_42)">
<rect x="10.7094" y="11.2754" width="285.045" height="616.323" rx="38.4453" fill="#1C1C1C"/>
<g clip-path="url(#clip2_237_42)">
<rect x="9.88965" y="-1.0238" width="287.452" height="641.018" fill="#EFEFEF"/>
</g>
<g clip-path="url(#clip3_237_42)">
<rect width="285.627" height="634.727" transform="translate(10.4191 7.48523)" fill="#F7FEFF"/>
<rect x="29.2973" y="165.374" width="247.543" height="34.91" rx="12.6945" fill="#CFE7EB"/>
<path d="M38.1748 154.571H36.5879L32.1448 147.754V154.571H30.6215V145.571H32.5638L36.6514 151.956V145.571H38.1748V154.571ZM41.8602 152.921C42.1988 153.268 42.6092 153.441 43.0916 153.441C43.574 153.441 43.9802 153.268 44.3103 152.921C44.6488 152.574 44.8181 152.092 44.8181 151.474C44.8181 150.864 44.6488 150.391 44.3103 150.052C43.9802 149.705 43.574 149.532 43.0916 149.532C42.6092 149.532 42.1988 149.705 41.8602 150.052C41.5302 150.391 41.3651 150.864 41.3651 151.474C41.3651 152.083 41.5302 152.566 41.8602 152.921ZM43.0916 148.199C44.0225 148.199 44.7884 148.508 45.3893 149.125C45.9987 149.743 46.3033 150.526 46.3033 151.474C46.3033 152.422 45.9987 153.209 45.3893 153.835C44.7884 154.453 44.0225 154.762 43.0916 154.762C42.1691 154.762 41.4032 154.453 40.7939 153.835C40.193 153.209 39.8926 152.422 39.8926 151.474C39.8926 150.526 40.193 149.743 40.7939 149.125C41.4032 148.508 42.1691 148.199 43.0916 148.199ZM49.3846 154.571H47.9247V148.389H49.3338V149.176C49.5031 148.871 49.757 148.634 50.0955 148.465C50.4425 148.296 50.7979 148.211 51.1619 148.211C51.5765 148.211 51.9489 148.304 52.279 148.491C52.609 148.677 52.8545 148.948 53.0153 149.303C53.4469 148.575 54.1155 148.211 55.021 148.211C55.6303 148.211 56.1466 148.41 56.5697 148.808C56.9929 149.206 57.2045 149.79 57.2045 150.56V154.571H55.7827V150.801C55.7827 150.42 55.6811 150.116 55.478 149.887C55.2833 149.65 54.9871 149.532 54.5894 149.532C54.2085 149.532 53.8996 149.663 53.6627 149.925C53.4257 150.187 53.3072 150.513 53.3072 150.903V154.571H51.8601V150.801C51.8601 150.42 51.7585 150.116 51.5554 149.887C51.3607 149.65 51.0645 149.532 50.6668 149.532C50.2775 149.532 49.9643 149.663 49.7274 149.925C49.4989 150.179 49.3846 150.505 49.3846 150.903V154.571ZM60.6405 154.571H59.206V145.38H60.6532V149.151C60.8055 148.888 61.0552 148.668 61.4022 148.491C61.7492 148.313 62.1469 148.224 62.5955 148.224C63.4925 148.224 64.1907 148.529 64.6901 149.138C65.1978 149.739 65.4517 150.509 65.4517 151.448C65.4517 152.405 65.1852 153.192 64.652 153.81C64.1273 154.419 63.4248 154.724 62.5447 154.724C61.6645 154.724 61.0298 154.398 60.6405 153.746V154.571ZM63.4968 152.896C63.8099 152.54 63.9665 152.062 63.9665 151.461C63.9665 150.86 63.8141 150.391 63.5095 150.052C63.2048 149.705 62.8028 149.532 62.3035 149.532C61.8211 149.532 61.4233 149.705 61.1102 150.052C60.7971 150.391 60.6405 150.86 60.6405 151.461C60.6405 152.054 60.7971 152.527 61.1102 152.883C61.4233 153.238 61.8211 153.416 62.3035 153.416C62.7943 153.416 63.1921 153.243 63.4968 152.896ZM70.6837 148.351V149.849C70.5144 149.824 70.3536 149.811 70.2013 149.811C69.0926 149.811 68.5383 150.416 68.5383 151.626V154.571H67.0657V148.389H68.5002V149.379C68.6441 149.049 68.8768 148.791 69.1984 148.605C69.52 148.41 69.8839 148.313 70.2901 148.313C70.4256 148.313 70.5567 148.326 70.6837 148.351ZM73.0776 150.801H76.1116C76.0947 150.412 75.955 150.086 75.6927 149.824C75.4388 149.561 75.0706 149.43 74.5882 149.43C74.1482 149.43 73.7927 149.57 73.5219 149.849C73.2511 150.12 73.103 150.437 73.0776 150.801ZM76.2766 152.413L77.5207 152.807C77.3429 153.374 77.0087 153.843 76.5178 154.216C76.0354 154.58 75.4388 154.762 74.7279 154.762C73.8477 154.762 73.0987 154.461 72.4809 153.86C71.8716 153.26 71.5669 152.456 71.5669 151.448C71.5669 150.501 71.8631 149.722 72.4556 149.113C73.0564 148.503 73.7631 148.199 74.5755 148.199C75.5234 148.199 76.2639 148.491 76.7971 149.075C77.3303 149.65 77.5968 150.429 77.5968 151.41C77.5968 151.673 77.5841 151.829 77.5588 151.88H73.0395C73.0564 152.346 73.2257 152.731 73.5473 153.035C73.8773 153.34 74.2709 153.492 74.7279 153.492C75.5234 153.492 76.0396 153.133 76.2766 152.413Z" fill="#032556"/>
<path d="M36.8741 219.631L36.0236 217.371H32.2152L31.3774 219.631H29.7652L33.2689 210.63H35.0334L38.5371 219.631H36.8741ZM34.1194 212.281L32.7484 215.962H35.4904L34.1194 212.281ZM41.2364 222.043H39.7765V213.448H41.1983V214.286C41.3591 214.007 41.613 213.774 41.96 213.588C42.307 213.402 42.709 213.309 43.166 213.309C44.0546 213.309 44.7528 213.614 45.2606 214.223C45.7683 214.824 46.0222 215.594 46.0222 216.533C46.0222 217.473 45.7556 218.251 45.2225 218.869C44.6893 219.478 43.9869 219.783 43.1152 219.783C42.692 219.783 42.3154 219.703 41.9854 219.542C41.6553 219.381 41.4056 219.178 41.2364 218.933V222.043ZM44.5497 216.533C44.5497 215.958 44.3973 215.497 44.0927 215.15C43.788 214.794 43.386 214.616 42.8867 214.616C42.3958 214.616 41.9938 214.794 41.6807 215.15C41.376 215.497 41.2237 215.958 41.2237 216.533C41.2237 217.117 41.376 217.587 41.6807 217.942C41.9938 218.298 42.3958 218.476 42.8867 218.476C43.3775 218.476 43.7753 218.298 44.08 217.942C44.3931 217.587 44.5497 217.117 44.5497 216.533ZM48.6645 215.86H51.6985C51.6815 215.471 51.5419 215.145 51.2796 214.883C51.0257 214.621 50.6575 214.489 50.1751 214.489C49.735 214.489 49.3796 214.629 49.1088 214.908C48.838 215.179 48.6899 215.497 48.6645 215.86ZM51.8635 217.473L53.1076 217.866C52.9298 218.433 52.5956 218.903 52.1047 219.275C51.6223 219.639 51.0257 219.821 50.3148 219.821C49.4346 219.821 48.6856 219.521 48.0678 218.92C47.4585 218.319 47.1538 217.515 47.1538 216.508C47.1538 215.56 47.45 214.781 48.0424 214.172C48.6433 213.563 49.35 213.258 50.1624 213.258C51.1103 213.258 51.8508 213.55 52.384 214.134C52.9171 214.709 53.1837 215.488 53.1837 216.47C53.1837 216.732 53.171 216.889 53.1456 216.939H48.6264C48.6433 217.405 48.8126 217.79 49.1342 218.095C49.4642 218.399 49.8578 218.552 50.3148 218.552C51.1103 218.552 51.6265 218.192 51.8635 217.473ZM56.2619 219.631H54.7893V210.44H56.2619V219.631ZM59.8322 219.631H58.3596V210.44H59.8322V219.631ZM63.3898 219.631H61.93V213.448H63.3898V219.631ZM61.9807 211.951C61.7946 211.764 61.7015 211.54 61.7015 211.278C61.7015 211.015 61.7946 210.791 61.9807 210.605C62.1669 210.41 62.3912 210.313 62.6536 210.313C62.9244 210.313 63.1529 210.406 63.3391 210.592C63.5252 210.778 63.6183 211.007 63.6183 211.278C63.6183 211.54 63.5252 211.764 63.3391 211.951C63.1529 212.137 62.9244 212.23 62.6536 212.23C62.3912 212.23 62.1669 212.137 61.9807 211.951ZM66.4781 216.521C66.4781 217.113 66.6304 217.591 66.9351 217.955C67.2398 218.311 67.6417 218.488 68.1411 218.488C68.6235 218.488 69.017 218.306 69.3217 217.942C69.6263 217.578 69.7787 217.1 69.7787 216.508C69.7787 215.924 69.6306 215.458 69.3344 215.111C69.0381 214.764 68.6446 214.591 68.1538 214.591C67.6629 214.591 67.2609 214.769 66.9478 215.124C66.6346 215.471 66.4781 215.937 66.4781 216.521ZM71.2005 210.44V218.501C71.2005 218.916 71.2216 219.292 71.2639 219.631H69.8548C69.8125 219.394 69.7914 219.127 69.7914 218.831C69.639 219.11 69.4021 219.339 69.0805 219.516C68.7589 219.694 68.3907 219.783 67.976 219.783C67.0959 219.783 66.3808 219.474 65.8307 218.856C65.2806 218.239 65.0055 217.46 65.0055 216.521C65.0055 215.615 65.2806 214.849 65.8307 214.223C66.3892 213.597 67.0959 213.283 67.9507 213.283C68.4415 213.283 68.835 213.372 69.1312 213.55C69.4359 213.728 69.6475 213.935 69.766 214.172V210.44H71.2005ZM74.8081 217.98C75.1466 218.327 75.5571 218.501 76.0394 218.501C76.5218 218.501 76.9281 218.327 77.2581 217.98C77.5966 217.633 77.7659 217.151 77.7659 216.533C77.7659 215.924 77.5966 215.45 77.2581 215.111C76.9281 214.764 76.5218 214.591 76.0394 214.591C75.5571 214.591 75.1466 214.764 74.8081 215.111C74.478 215.45 74.313 215.924 74.313 216.533C74.313 217.143 74.478 217.625 74.8081 217.98ZM76.0394 213.258C76.9704 213.258 77.7363 213.567 78.3372 214.185C78.9465 214.803 79.2512 215.585 79.2512 216.533C79.2512 217.481 78.9465 218.268 78.3372 218.894C77.7363 219.512 76.9704 219.821 76.0394 219.821C75.117 219.821 74.3511 219.512 73.7417 218.894C73.1409 218.268 72.8404 217.481 72.8404 216.533C72.8404 215.585 73.1409 214.803 73.7417 214.185C74.3511 213.567 75.117 213.258 76.0394 213.258Z" fill="#032556"/>
<rect x="29.6382" y="230.978" width="247.543" height="34.91" rx="12.6945" fill="#CFE7EB"/>
<path d="M34.7161 284.881C33.4551 284.881 32.3803 284.453 31.4916 283.599C30.6115 282.744 30.1714 281.61 30.1714 280.196C30.1714 278.792 30.62 277.658 31.517 276.794C32.4141 275.931 33.4762 275.499 34.7034 275.499C35.7866 275.499 36.6752 275.775 37.3692 276.325C38.0716 276.875 38.5329 277.573 38.7529 278.419L37.3184 278.902C37.1746 278.318 36.8826 277.844 36.4425 277.48C36.0024 277.116 35.4227 276.934 34.7034 276.934C33.8994 276.934 33.2012 277.222 32.6088 277.797C32.0248 278.364 31.7328 279.164 31.7328 280.196C31.7328 281.204 32.0248 281.995 32.6088 282.57C33.1927 283.137 33.8951 283.421 34.7161 283.421C35.4185 283.421 35.9982 283.23 36.4552 282.85C36.9122 282.469 37.2253 281.999 37.3946 281.441L38.791 281.898C38.571 282.735 38.1055 283.442 37.3946 284.017C36.6922 284.593 35.7993 284.881 34.7161 284.881ZM41.6709 283.04C42.0094 283.387 42.4199 283.56 42.9022 283.56C43.3846 283.56 43.7909 283.387 44.1209 283.04C44.4594 282.693 44.6287 282.211 44.6287 281.593C44.6287 280.984 44.4594 280.51 44.1209 280.171C43.7909 279.824 43.3846 279.651 42.9022 279.651C42.4199 279.651 42.0094 279.824 41.6709 280.171C41.3408 280.51 41.1758 280.984 41.1758 281.593C41.1758 282.202 41.3408 282.685 41.6709 283.04ZM42.9022 278.318C43.8332 278.318 44.5991 278.627 45.2 279.244C45.8093 279.862 46.114 280.645 46.114 281.593C46.114 282.541 45.8093 283.328 45.2 283.954C44.5991 284.572 43.8332 284.881 42.9022 284.881C41.9798 284.881 41.2139 284.572 40.6045 283.954C40.0037 283.328 39.7032 282.541 39.7032 281.593C39.7032 280.645 40.0037 279.862 40.6045 279.244C41.2139 278.627 41.9798 278.318 42.9022 278.318ZM51.3533 278.47V279.968C51.1841 279.943 51.0233 279.93 50.8709 279.93C49.7623 279.93 49.208 280.535 49.208 281.745V284.69H47.7354V278.508H49.1699V279.498C49.3138 279.168 49.5465 278.91 49.8681 278.724C50.1897 278.529 50.5536 278.432 50.9598 278.432C51.0952 278.432 51.2264 278.445 51.3533 278.47ZM56.3989 278.47V279.968C56.2297 279.943 56.0689 279.93 55.9165 279.93C54.8079 279.93 54.2535 280.535 54.2535 281.745V284.69H52.781V278.508H54.2155V279.498C54.3593 279.168 54.5921 278.91 54.9137 278.724C55.2353 278.529 55.5992 278.432 56.0054 278.432C56.1408 278.432 56.272 278.445 56.3989 278.47ZM58.7928 280.92H61.8268C61.8099 280.531 61.6703 280.205 61.4079 279.943C61.154 279.68 60.7859 279.549 60.3035 279.549C59.8634 279.549 59.508 279.689 59.2371 279.968C58.9663 280.239 58.8182 280.556 58.7928 280.92ZM61.9919 282.532L63.2359 282.926C63.0582 283.493 62.7239 283.962 62.2331 284.335C61.7507 284.699 61.154 284.881 60.4431 284.881C59.563 284.881 58.814 284.58 58.1962 283.979C57.5869 283.379 57.2822 282.575 57.2822 281.567C57.2822 280.62 57.5784 279.841 58.1708 279.232C58.7717 278.622 59.4783 278.318 60.2908 278.318C61.2386 278.318 61.9792 278.61 62.5123 279.194C63.0455 279.769 63.3121 280.548 63.3121 281.529C63.3121 281.792 63.2994 281.948 63.274 281.999H58.7547C58.7717 282.465 58.9409 282.85 59.2625 283.154C59.5926 283.459 59.9861 283.611 60.4431 283.611C61.2386 283.611 61.7549 283.252 61.9919 282.532ZM66.4029 283.04C66.7414 283.387 67.1519 283.56 67.6343 283.56C68.1167 283.56 68.5229 283.387 68.853 283.04C69.1915 282.693 69.3607 282.211 69.3607 281.593C69.3607 280.984 69.1915 280.51 68.853 280.171C68.5229 279.824 68.1167 279.651 67.6343 279.651C67.1519 279.651 66.7414 279.824 66.4029 280.171C66.0729 280.51 65.9078 280.984 65.9078 281.593C65.9078 282.202 66.0729 282.685 66.4029 283.04ZM67.6343 278.318C68.5652 278.318 69.3311 278.627 69.932 279.244C70.5413 279.862 70.846 280.645 70.846 281.593C70.846 282.541 70.5413 283.328 69.932 283.954C69.3311 284.572 68.5652 284.881 67.6343 284.881C66.7118 284.881 65.9459 284.572 65.3366 283.954C64.7357 283.328 64.4353 282.541 64.4353 281.593C64.4353 280.645 64.7357 279.862 65.3366 279.244C65.9459 278.627 66.7118 278.318 67.6343 278.318ZM76.8429 280.92H79.8769C79.8599 280.531 79.7203 280.205 79.4579 279.943C79.2041 279.68 78.8359 279.549 78.3535 279.549C77.9134 279.549 77.558 279.689 77.2872 279.968C77.0164 280.239 76.8683 280.556 76.8429 280.92ZM80.0419 282.532L81.286 282.926C81.1082 283.493 80.7739 283.962 80.2831 284.335C79.8007 284.699 79.2041 284.881 78.4932 284.881C77.613 284.881 76.864 284.58 76.2462 283.979C75.6369 283.379 75.3322 282.575 75.3322 281.567C75.3322 280.62 75.6284 279.841 76.2208 279.232C76.8217 278.622 77.5284 278.318 78.3408 278.318C79.2887 278.318 80.0292 278.61 80.5624 279.194C81.0955 279.769 81.3621 280.548 81.3621 281.529C81.3621 281.792 81.3494 281.948 81.324 281.999H76.8048C76.8217 282.465 76.991 282.85 77.3126 283.154C77.6426 283.459 78.0362 283.611 78.4932 283.611C79.2887 283.611 79.8049 283.252 80.0419 282.532ZM84.4403 284.69H82.9677V275.499H84.4403V284.69ZM87.5663 280.92H90.6003C90.5834 280.531 90.4437 280.205 90.1814 279.943C89.9275 279.68 89.5593 279.549 89.0769 279.549C88.6369 279.549 88.2814 279.689 88.0106 279.968C87.7398 280.239 87.5917 280.556 87.5663 280.92ZM90.7653 282.532L92.0094 282.926C91.8316 283.493 91.4974 283.962 91.0065 284.335C90.5241 284.699 89.9275 284.881 89.2166 284.881C88.3364 284.881 87.5874 284.58 86.9696 283.979C86.3603 283.379 86.0556 282.575 86.0556 281.567C86.0556 280.62 86.3518 279.841 86.9443 279.232C87.5451 278.622 88.2518 278.318 89.0642 278.318C90.0121 278.318 90.7526 278.61 91.2858 279.194C91.819 279.769 92.0855 280.548 92.0855 281.529C92.0855 281.792 92.0728 281.948 92.0475 281.999H87.5282C87.5451 282.465 87.7144 282.85 88.036 283.154C88.366 283.459 88.7596 283.611 89.2166 283.611C90.0121 283.611 90.5283 283.252 90.7653 282.532ZM96.3823 279.676C95.9084 279.676 95.5064 279.849 95.1764 280.196C94.8463 280.535 94.6813 281 94.6813 281.593C94.6813 282.194 94.8463 282.668 95.1764 283.015C95.5149 283.362 95.9253 283.535 96.4077 283.535C96.8393 283.535 97.1821 283.421 97.436 283.192C97.6983 282.955 97.8718 282.689 97.9565 282.393L99.2513 282.862C99.082 283.412 98.752 283.886 98.2611 284.284C97.7787 284.682 97.1609 284.881 96.4077 284.881C95.5022 284.881 94.7405 284.568 94.1227 283.941C93.5134 283.315 93.2087 282.532 93.2087 281.593C93.2087 280.645 93.5091 279.862 94.11 279.244C94.7194 278.627 95.4726 278.318 96.3696 278.318C97.1398 278.318 97.766 278.517 98.2484 278.914C98.7393 279.312 99.0567 279.79 99.2005 280.349L97.8803 280.831C97.7957 280.51 97.6306 280.239 97.3852 280.019C97.1482 279.79 96.814 279.676 96.3823 279.676ZM102.623 276.617V278.508H103.906V279.816H102.623V282.685C102.623 282.955 102.687 283.154 102.814 283.281C102.941 283.4 103.14 283.459 103.411 283.459C103.58 283.459 103.749 283.442 103.918 283.408V284.627C103.698 284.72 103.398 284.766 103.017 284.766C102.442 284.766 101.989 284.606 101.659 284.284C101.329 283.954 101.164 283.501 101.164 282.926V279.816H100.021V278.508H100.338C100.652 278.508 100.889 278.419 101.049 278.241C101.21 278.064 101.291 277.831 101.291 277.543V276.617H102.623ZM109.123 278.47V279.968C108.954 279.943 108.793 279.93 108.641 279.93C107.532 279.93 106.978 280.535 106.978 281.745V284.69H105.505V278.508H106.94V279.498C107.084 279.168 107.317 278.91 107.638 278.724C107.96 278.529 108.324 278.432 108.73 278.432C108.865 278.432 108.996 278.445 109.123 278.47ZM115.351 275.855L113.688 277.734H112.482L113.612 275.855H115.351ZM111.974 283.04C112.313 283.387 112.723 283.56 113.206 283.56C113.688 283.56 114.094 283.387 114.424 283.04C114.763 282.693 114.932 282.211 114.932 281.593C114.932 280.984 114.763 280.51 114.424 280.171C114.094 279.824 113.688 279.651 113.206 279.651C112.723 279.651 112.313 279.824 111.974 280.171C111.644 280.51 111.479 280.984 111.479 281.593C111.479 282.202 111.644 282.685 111.974 283.04ZM113.206 278.318C114.137 278.318 114.903 278.627 115.503 279.244C116.113 279.862 116.417 280.645 116.417 281.593C116.417 282.541 116.113 283.328 115.503 283.954C114.903 284.572 114.137 284.881 113.206 284.881C112.283 284.881 111.517 284.572 110.908 283.954C110.307 283.328 110.007 282.541 110.007 281.593C110.007 280.645 110.307 279.862 110.908 279.244C111.517 278.627 112.283 278.318 113.206 278.318ZM119.511 281.123V284.69H118.039V278.508H119.473V279.333C119.668 278.995 119.926 278.745 120.248 278.584C120.578 278.415 120.929 278.33 121.301 278.33C122.029 278.33 122.583 278.559 122.964 279.016C123.345 279.473 123.536 280.061 123.536 280.78V284.69H122.063V281.034C122.063 280.62 121.961 280.29 121.758 280.044C121.555 279.79 121.234 279.663 120.794 279.663C120.387 279.663 120.07 279.803 119.841 280.082C119.621 280.353 119.511 280.7 119.511 281.123ZM126.986 284.69H125.527V278.508H126.986V284.69ZM125.577 277.01C125.391 276.824 125.298 276.6 125.298 276.337C125.298 276.075 125.391 275.851 125.577 275.664C125.764 275.47 125.988 275.373 126.25 275.373C126.521 275.373 126.75 275.466 126.936 275.652C127.122 275.838 127.215 276.066 127.215 276.337C127.215 276.6 127.122 276.824 126.936 277.01C126.75 277.196 126.521 277.289 126.25 277.289C125.988 277.289 125.764 277.196 125.577 277.01ZM131.776 279.676C131.302 279.676 130.9 279.849 130.57 280.196C130.24 280.535 130.075 281 130.075 281.593C130.075 282.194 130.24 282.668 130.57 283.015C130.908 283.362 131.319 283.535 131.801 283.535C132.233 283.535 132.576 283.421 132.829 283.192C133.092 282.955 133.265 282.689 133.35 282.393L134.645 282.862C134.476 283.412 134.145 283.886 133.655 284.284C133.172 284.682 132.554 284.881 131.801 284.881C130.896 284.881 130.134 284.568 129.516 283.941C128.907 283.315 128.602 282.532 128.602 281.593C128.602 280.645 128.903 279.862 129.503 279.244C130.113 278.627 130.866 278.318 131.763 278.318C132.533 278.318 133.16 278.517 133.642 278.914C134.133 279.312 134.45 279.79 134.594 280.349L133.274 280.831C133.189 280.51 133.024 280.239 132.779 280.019C132.542 279.79 132.207 279.676 131.776 279.676ZM137.574 283.04C137.913 283.387 138.323 283.56 138.805 283.56C139.288 283.56 139.694 283.387 140.024 283.04C140.363 282.693 140.532 282.211 140.532 281.593C140.532 280.984 140.363 280.51 140.024 280.171C139.694 279.824 139.288 279.651 138.805 279.651C138.323 279.651 137.913 279.824 137.574 280.171C137.244 280.51 137.079 280.984 137.079 281.593C137.079 282.202 137.244 282.685 137.574 283.04ZM138.805 278.318C139.736 278.318 140.502 278.627 141.103 279.244C141.713 279.862 142.017 280.645 142.017 281.593C142.017 282.541 141.713 283.328 141.103 283.954C140.502 284.572 139.736 284.881 138.805 284.881C137.883 284.881 137.117 284.572 136.508 283.954C135.907 283.328 135.606 282.541 135.606 281.593C135.606 280.645 135.907 279.862 136.508 279.244C137.117 278.627 137.883 278.318 138.805 278.318Z" fill="#032556"/>
<rect x="29.6382" y="296.038" width="247.543" height="34.91" rx="12.6945" fill="#CFE7EB"/>
<path d="M34.7161 349.94C33.4551 349.94 32.3803 349.513 31.4916 348.658C30.6115 347.803 30.1714 346.669 30.1714 345.256C30.1714 343.851 30.62 342.717 31.517 341.854C32.4141 340.99 33.4762 340.559 34.7034 340.559C35.7866 340.559 36.6752 340.834 37.3692 341.384C38.0716 341.934 38.5329 342.632 38.7529 343.479L37.3184 343.961C37.1746 343.377 36.8826 342.903 36.4425 342.539C36.0024 342.175 35.4227 341.993 34.7034 341.993C33.8994 341.993 33.2012 342.281 32.6088 342.857C32.0248 343.424 31.7328 344.223 31.7328 345.256C31.7328 346.263 32.0248 347.054 32.6088 347.63C33.1927 348.197 33.8951 348.48 34.7161 348.48C35.4185 348.48 35.9982 348.29 36.4552 347.909C36.9122 347.528 37.2253 347.058 37.3946 346.5L38.791 346.957C38.571 347.795 38.1055 348.501 37.3946 349.077C36.6922 349.652 35.7993 349.94 34.7161 349.94ZM41.2139 345.979H44.2479C44.2309 345.59 44.0913 345.264 43.829 345.002C43.5751 344.74 43.2069 344.608 42.7245 344.608C42.2844 344.608 41.929 344.748 41.6582 345.027C41.3874 345.298 41.2393 345.615 41.2139 345.979ZM44.4129 347.592L45.657 347.985C45.4792 348.552 45.145 349.022 44.6541 349.394C44.1717 349.758 43.5751 349.94 42.8642 349.94C41.984 349.94 41.235 349.64 40.6172 349.039C40.0079 348.438 39.7032 347.634 39.7032 346.627C39.7032 345.679 39.9994 344.9 40.5918 344.291C41.1927 343.682 41.8994 343.377 42.7118 343.377C43.6597 343.377 44.4002 343.669 44.9334 344.253C45.4665 344.828 45.7331 345.607 45.7331 346.589C45.7331 346.851 45.7204 347.008 45.695 347.058H41.1758C41.1927 347.524 41.362 347.909 41.6836 348.214C42.0136 348.518 42.4072 348.671 42.8642 348.671C43.6597 348.671 44.1759 348.311 44.4129 347.592ZM48.8113 349.75H47.3387V340.559H48.8113V349.75ZM54.896 349.064C54.7521 349.335 54.5152 349.547 54.1851 349.699C53.8635 349.851 53.5165 349.927 53.1442 349.927C52.4248 349.927 51.8535 349.695 51.4304 349.229C51.0157 348.764 50.8084 348.176 50.8084 347.465V343.567H52.2809V347.198C52.2809 347.613 52.3825 347.951 52.5856 348.214C52.7887 348.476 53.1018 348.607 53.525 348.607C53.9397 348.607 54.257 348.48 54.4771 348.226C54.7056 347.972 54.8198 347.638 54.8198 347.223V343.567H56.2924V348.62C56.2924 348.992 56.3136 349.369 56.3559 349.75H54.9468C54.9129 349.563 54.896 349.335 54.896 349.064ZM59.8694 349.75H58.3968V340.559H59.8694V349.75ZM61.5615 348.074C61.5615 347.549 61.7308 347.13 62.0693 346.817C62.4163 346.496 62.8691 346.292 63.4276 346.208L65.0144 345.967C65.3191 345.924 65.4714 345.776 65.4714 345.522C65.4714 345.243 65.3741 345.019 65.1795 344.85C64.9848 344.672 64.6928 344.583 64.3036 344.583C63.9312 344.583 63.635 344.689 63.4149 344.9C63.1949 345.103 63.0679 345.37 63.0341 345.7L61.6885 345.395C61.7477 344.837 62.0143 344.363 62.4882 343.974C62.9622 343.576 63.563 343.377 64.2909 343.377C65.1879 343.377 65.8481 343.593 66.2712 344.024C66.7028 344.456 66.9186 345.01 66.9186 345.687V348.759C66.9186 349.166 66.944 349.496 66.9948 349.75H65.6238C65.5815 349.623 65.5603 349.36 65.5603 348.963C65.1541 349.614 64.5194 349.94 63.6561 349.94C63.0299 349.94 62.5221 349.758 62.1328 349.394C61.7519 349.022 61.5615 348.582 61.5615 348.074ZM63.9354 348.785C64.3924 348.785 64.7606 348.662 65.0398 348.417C65.3276 348.163 65.4714 347.752 65.4714 347.185V346.906L63.8592 347.147C63.3091 347.24 63.0341 347.52 63.0341 347.985C63.0341 348.205 63.1145 348.396 63.2753 348.556C63.4361 348.709 63.6561 348.785 63.9354 348.785ZM72.515 343.529V345.027C72.3458 345.002 72.185 344.989 72.0326 344.989C70.924 344.989 70.3697 345.594 70.3697 346.805V349.75H68.8971V343.567H70.3316V344.558C70.4754 344.228 70.7082 343.969 71.0298 343.783C71.3514 343.589 71.7153 343.491 72.1215 343.491C72.2569 343.491 72.3881 343.504 72.515 343.529Z" fill="#032556"/>
<rect x="29.6382" y="361.097" width="247.543" height="34.91" rx="12.6945" fill="#CFE7EB"/>
<path d="M34.7161 415C33.4551 415 32.3803 414.572 31.4916 413.717C30.6115 412.863 30.1714 411.729 30.1714 410.315C30.1714 408.91 30.62 407.776 31.517 406.913C32.4141 406.05 33.4762 405.618 34.7034 405.618C35.7866 405.618 36.6752 405.893 37.3692 406.444C38.0716 406.994 38.5329 407.692 38.7529 408.538L37.3184 409.02C37.1746 408.437 36.8826 407.963 36.4425 407.599C36.0024 407.235 35.4227 407.053 34.7034 407.053C33.8994 407.053 33.2012 407.341 32.6088 407.916C32.0248 408.483 31.7328 409.283 31.7328 410.315C31.7328 411.322 32.0248 412.114 32.6088 412.689C33.1927 413.256 33.8951 413.54 34.7161 413.54C35.4185 413.54 35.9982 413.349 36.4552 412.968C36.9122 412.588 37.2253 412.118 37.3946 411.559L38.791 412.016C38.571 412.854 38.1055 413.561 37.3946 414.136C36.6922 414.712 35.7993 415 34.7161 415ZM41.6709 413.159C42.0094 413.506 42.4199 413.679 42.9022 413.679C43.3846 413.679 43.7909 413.506 44.1209 413.159C44.4594 412.812 44.6287 412.33 44.6287 411.712C44.6287 411.102 44.4594 410.628 44.1209 410.29C43.7909 409.943 43.3846 409.769 42.9022 409.769C42.4199 409.769 42.0094 409.943 41.6709 410.29C41.3408 410.628 41.1758 411.102 41.1758 411.712C41.1758 412.321 41.3408 412.803 41.6709 413.159ZM42.9022 408.437C43.8332 408.437 44.5991 408.745 45.2 409.363C45.8093 409.981 46.114 410.764 46.114 411.712C46.114 412.66 45.8093 413.447 45.2 414.073C44.5991 414.691 43.8332 415 42.9022 415C41.9798 415 41.2139 414.691 40.6045 414.073C40.0037 413.447 39.7032 412.66 39.7032 411.712C39.7032 410.764 40.0037 409.981 40.6045 409.363C41.2139 408.745 41.9798 408.437 42.9022 408.437ZM49.208 411.242V414.809H47.7354V408.627H49.1699V409.452C49.3645 409.114 49.6227 408.864 49.9442 408.703C50.2743 408.534 50.6255 408.449 50.9979 408.449C51.7257 408.449 52.28 408.678 52.6609 409.135C53.0417 409.592 53.2321 410.18 53.2321 410.899V414.809H51.7596V411.153C51.7596 410.738 51.658 410.408 51.4549 410.163C51.2518 409.909 50.9302 409.782 50.4901 409.782C50.0839 409.782 49.7665 409.922 49.538 410.201C49.318 410.472 49.208 410.819 49.208 411.242ZM57.0893 406.735V408.627H58.3714V409.935H57.0893V412.803C57.0893 413.074 57.1528 413.273 57.2797 413.4C57.4066 413.519 57.6055 413.578 57.8763 413.578C58.0456 413.578 58.2149 413.561 58.3841 413.527V414.746C58.1641 414.839 57.8637 414.885 57.4828 414.885C56.9073 414.885 56.4546 414.725 56.1245 414.403C55.7944 414.073 55.6294 413.62 55.6294 413.045V409.935H54.4869V408.627H54.8043C55.1174 408.627 55.3544 408.538 55.5152 408.36C55.676 408.183 55.7564 407.95 55.7564 407.662V406.735H57.0893ZM63.5892 408.589V410.087C63.4199 410.061 63.2591 410.049 63.1068 410.049C61.9981 410.049 61.4438 410.654 61.4438 411.864V414.809H59.9712V408.627H61.4057V409.617C61.5496 409.287 61.7823 409.029 62.1039 408.843C62.4255 408.648 62.7894 408.551 63.1957 408.551C63.3311 408.551 63.4622 408.563 63.5892 408.589ZM64.6484 413.134C64.6484 412.609 64.8176 412.19 65.1562 411.877C65.5031 411.555 65.9559 411.352 66.5145 411.267L68.1013 411.026C68.406 410.984 68.5583 410.836 68.5583 410.582C68.5583 410.303 68.461 410.078 68.2663 409.909C68.0717 409.731 67.7797 409.643 67.3904 409.643C67.018 409.643 66.7218 409.748 66.5018 409.96C66.2817 410.163 66.1548 410.43 66.1209 410.76L64.7753 410.455C64.8346 409.896 65.1012 409.422 65.5751 409.033C66.049 408.635 66.6499 408.437 67.3777 408.437C68.2748 408.437 68.9349 408.652 69.3581 409.084C69.7897 409.516 70.0055 410.07 70.0055 410.747V413.819C70.0055 414.225 70.0309 414.555 70.0816 414.809H68.7106C68.6683 414.682 68.6472 414.42 68.6472 414.022C68.2409 414.674 67.6062 415 66.743 415C66.1167 415 65.6089 414.818 65.2196 414.454C64.8388 414.081 64.6484 413.641 64.6484 413.134ZM67.0223 413.844C67.4793 413.844 67.8474 413.722 68.1267 413.476C68.4144 413.222 68.5583 412.812 68.5583 412.245V411.966L66.9461 412.207C66.396 412.3 66.1209 412.579 66.1209 413.045C66.1209 413.265 66.2013 413.455 66.3621 413.616C66.5229 413.768 66.743 413.844 67.0223 413.844ZM71.4381 413.134L72.7202 412.778C72.7456 413.074 72.8683 413.324 73.0884 413.527C73.3084 413.73 73.6046 413.832 73.977 413.832C74.2647 413.832 74.489 413.764 74.6498 413.629C74.8191 413.493 74.9037 413.324 74.9037 413.121C74.9037 412.765 74.6625 412.537 74.1801 412.435L73.2661 412.232C72.7329 412.114 72.3225 411.894 72.0347 411.572C71.747 411.251 71.6031 410.87 71.6031 410.43C71.6031 409.888 71.8231 409.422 72.2632 409.033C72.7033 408.635 73.2407 408.437 73.8754 408.437C74.2817 408.437 74.6413 408.496 74.9545 408.614C75.2676 408.733 75.5088 408.889 75.6781 409.084C75.8558 409.27 75.9912 409.452 76.0843 409.63C76.1774 409.808 76.2366 409.985 76.262 410.163L75.0179 410.518C74.9841 410.281 74.8741 410.07 74.6879 409.884C74.5102 409.689 74.2393 409.592 73.8754 409.592C73.6215 409.592 73.41 409.664 73.2407 409.808C73.0714 409.943 72.9868 410.108 72.9868 410.303C72.9868 410.65 73.1942 410.865 73.6088 410.95L74.5482 411.14C75.1237 411.267 75.5638 411.496 75.8685 411.826C76.1731 412.156 76.3255 412.554 76.3255 413.019C76.3255 413.536 76.1181 413.997 75.7034 414.403C75.2972 414.801 74.726 415 73.9897 415C73.5665 415 73.1857 414.936 72.8472 414.809C72.5171 414.682 72.2548 414.521 72.0601 414.327C71.8739 414.124 71.7258 413.925 71.6158 413.73C71.5142 413.527 71.455 413.328 71.4381 413.134ZM78.9752 411.039H82.0092C81.9922 410.65 81.8526 410.324 81.5902 410.061C81.3363 409.799 80.9682 409.668 80.4858 409.668C80.0457 409.668 79.6903 409.808 79.4195 410.087C79.1487 410.358 79.0005 410.675 78.9752 411.039ZM82.1742 412.651L83.4182 413.045C83.2405 413.612 82.9062 414.081 82.4154 414.454C81.933 414.818 81.3363 415 80.6254 415C79.7453 415 78.9963 414.699 78.3785 414.098C77.7692 413.497 77.4645 412.693 77.4645 411.686C77.4645 410.738 77.7607 409.96 78.3531 409.351C78.954 408.741 79.6607 408.437 80.4731 408.437C81.421 408.437 82.1615 408.729 82.6947 409.312C83.2278 409.888 83.4944 410.667 83.4944 411.648C83.4944 411.911 83.4817 412.067 83.4563 412.118H78.9371C78.954 412.583 79.1233 412.968 79.4449 413.273C79.7749 413.578 80.1684 413.73 80.6254 413.73C81.421 413.73 81.9372 413.37 82.1742 412.651ZM86.5725 411.242V414.809H85.1V408.627H86.5345V409.452C86.7291 409.114 86.9872 408.864 87.3088 408.703C87.6389 408.534 87.9901 408.449 88.3625 408.449C89.0903 408.449 89.6446 408.678 90.0255 409.135C90.4063 409.592 90.5967 410.18 90.5967 410.899V414.809H89.1241V411.153C89.1241 410.738 89.0226 410.408 88.8195 410.163C88.6164 409.909 88.2948 409.782 87.8547 409.782C87.4485 409.782 87.1311 409.922 86.9026 410.201C86.6826 410.472 86.5725 410.819 86.5725 411.242ZM85.8363 407.751L85.8236 407.523C85.8236 407.049 85.942 406.689 86.179 406.444C86.4244 406.19 86.7418 406.063 87.1311 406.063C87.4104 406.063 87.7066 406.156 88.0197 406.342L88.1467 406.418C88.3836 406.562 88.5656 406.634 88.6925 406.634C88.9549 406.634 89.0861 406.448 89.0861 406.075H90.0508V406.291C90.0508 406.765 89.9281 407.133 89.6827 407.396C89.4457 407.649 89.1368 407.776 88.756 407.776C88.4767 407.776 88.1763 407.679 87.8547 407.484L87.7277 407.408C87.4992 407.273 87.3173 407.205 87.1819 407.205C86.928 407.205 86.801 407.387 86.801 407.751H85.8363ZM92.2069 413.134C92.2069 412.609 92.3762 412.19 92.7147 411.877C93.0617 411.555 93.5145 411.352 94.073 411.267L95.6598 411.026C95.9645 410.984 96.1168 410.836 96.1168 410.582C96.1168 410.303 96.0195 410.078 95.8249 409.909C95.6302 409.731 95.3383 409.643 94.949 409.643C94.5766 409.643 94.2804 409.748 94.0603 409.96C93.8403 410.163 93.7133 410.43 93.6795 410.76L92.3339 410.455C92.3931 409.896 92.6597 409.422 93.1336 409.033C93.6076 408.635 94.2084 408.437 94.9363 408.437C95.8333 408.437 96.4935 408.652 96.9166 409.084C97.3482 409.516 97.564 410.07 97.564 410.747V413.819C97.564 414.225 97.5894 414.555 97.6402 414.809H96.2692C96.2269 414.682 96.2057 414.42 96.2057 414.022C95.7995 414.674 95.1648 415 94.3015 415C93.6753 415 93.1675 414.818 92.7782 414.454C92.3973 414.081 92.2069 413.641 92.2069 413.134ZM94.5808 413.844C95.0378 413.844 95.406 413.722 95.6852 413.476C95.973 413.222 96.1168 412.812 96.1168 412.245V411.966L94.5046 412.207C93.9545 412.3 93.6795 412.579 93.6795 413.045C93.6795 413.265 93.7599 413.455 93.9207 413.616C94.0815 413.768 94.3015 413.844 94.5808 413.844Z" fill="#032556"/>
<rect x="29.6382" y="426.156" width="247.543" height="34.91" rx="12.6945" fill="#CFE7EB"/>
<path d="M31.3856 478.153H32.9962C33.7663 478.153 34.4032 477.897 34.9067 477.386C35.4177 476.875 35.6732 476.146 35.6732 475.198C35.6732 474.243 35.4214 473.506 34.9178 472.988C34.4217 472.469 33.7886 472.21 33.0184 472.21H31.3856V478.153ZM33.0295 479.119H30.297V471.244H33.0517C34.1107 471.244 34.9993 471.595 35.7176 472.299C36.4359 472.995 36.795 473.961 36.795 475.198C36.795 476.427 36.4322 477.39 35.7065 478.086C34.9808 478.775 34.0885 479.119 33.0295 479.119ZM39.0564 475.898H41.9777C41.9629 475.498 41.8296 475.172 41.5778 474.92C41.3261 474.661 40.9706 474.532 40.5115 474.532C40.0968 474.532 39.7562 474.669 39.4896 474.943C39.223 475.209 39.0786 475.528 39.0564 475.898ZM42.1332 477.286L43.033 477.597C42.8774 478.093 42.5886 478.501 42.1666 478.819C41.7445 479.13 41.2335 479.286 40.6337 479.286C39.8858 479.286 39.2489 479.03 38.7232 478.519C38.2048 478.001 37.9456 477.305 37.9456 476.431C37.9456 475.616 38.1974 474.943 38.7009 474.409C39.2045 473.876 39.8043 473.61 40.5004 473.61C41.3076 473.61 41.937 473.865 42.3887 474.376C42.8404 474.88 43.0663 475.557 43.0663 476.409C43.0663 476.542 43.0589 476.653 43.0441 476.742H39.0231C39.0305 477.216 39.186 477.605 39.4896 477.908C39.8006 478.212 40.182 478.364 40.6337 478.364C41.3964 478.364 41.8963 478.005 42.1332 477.286ZM45.6305 479.119H44.5975V471.077H45.6305V474.532C45.7712 474.272 45.9933 474.058 46.297 473.887C46.608 473.71 46.9745 473.621 47.3966 473.621C48.1742 473.621 48.7777 473.884 49.2072 474.409C49.6367 474.935 49.8514 475.605 49.8514 476.42C49.8514 477.242 49.6293 477.923 49.185 478.464C48.7407 478.997 48.1334 479.263 47.3633 479.263C46.5635 479.263 45.9859 478.956 45.6305 478.341V479.119ZM48.3519 477.808C48.6407 477.46 48.7851 476.997 48.7851 476.42C48.7851 475.842 48.6407 475.387 48.3519 475.054C48.0705 474.713 47.6891 474.543 47.2078 474.543C46.7413 474.543 46.3599 474.713 46.0637 475.054C45.7675 475.394 45.6194 475.85 45.6194 476.42C45.6194 476.99 45.7675 477.453 46.0637 477.808C46.3599 478.156 46.7413 478.33 47.2078 478.33C47.6817 478.33 48.0631 478.156 48.3519 477.808ZM52.0578 475.898H54.9791C54.9643 475.498 54.831 475.172 54.5792 474.92C54.3274 474.661 53.972 474.532 53.5129 474.532C53.0982 474.532 52.7575 474.669 52.491 474.943C52.2244 475.209 52.08 475.528 52.0578 475.898ZM55.1346 477.286L56.0343 477.597C55.8788 478.093 55.59 478.501 55.1679 478.819C54.7458 479.13 54.2349 479.286 53.6351 479.286C52.8871 479.286 52.2503 479.03 51.7245 478.519C51.2062 478.001 50.947 477.305 50.947 476.431C50.947 475.616 51.1988 474.943 51.7023 474.409C52.2059 473.876 52.8057 473.61 53.5018 473.61C54.3089 473.61 54.9384 473.865 55.3901 474.376C55.8418 474.88 56.0676 475.557 56.0676 476.409C56.0676 476.542 56.0602 476.653 56.0454 476.742H52.0244C52.0318 477.216 52.1873 477.605 52.491 477.908C52.802 478.212 53.1833 478.364 53.6351 478.364C54.3978 478.364 54.8976 478.005 55.1346 477.286ZM61.6071 479.119H60.5741V473.776H61.6071V479.119ZM60.5519 472.288C60.4112 472.14 60.3409 471.962 60.3409 471.755C60.3409 471.547 60.4112 471.37 60.5519 471.221C60.7 471.073 60.8777 470.999 61.0851 470.999C61.2924 470.999 61.4701 471.073 61.6182 471.221C61.7663 471.362 61.8404 471.54 61.8404 471.755C61.8404 471.962 61.7663 472.14 61.6182 472.288C61.4701 472.428 61.2924 472.499 61.0851 472.499C60.8777 472.499 60.7 472.428 60.5519 472.288ZM64.6261 476.031V479.119H63.5819V473.776H64.6038V474.543C64.9593 473.928 65.5073 473.621 66.2478 473.621C66.8624 473.621 67.3326 473.817 67.6585 474.209C67.9917 474.602 68.1583 475.109 68.1583 475.731V479.119H67.1142V475.909C67.1142 475.013 66.6995 474.565 65.8701 474.565C65.4777 474.565 65.1703 474.706 64.9482 474.987C64.7334 475.261 64.6261 475.609 64.6261 476.031ZM72.2613 474.576C71.8096 474.576 71.4245 474.739 71.1061 475.065C70.7951 475.391 70.6396 475.85 70.6396 476.442C70.6396 477.027 70.7951 477.486 71.1061 477.819C71.4245 478.153 71.8133 478.319 72.2724 478.319C72.7167 478.319 73.0536 478.208 73.2832 477.986C73.5202 477.764 73.6794 477.508 73.7608 477.22L74.6828 477.619C74.5347 478.064 74.2533 478.453 73.8386 478.786C73.4313 479.119 72.9092 479.286 72.2724 479.286C71.4949 479.286 70.8506 479.015 70.3397 478.475C69.8287 477.934 69.5732 477.257 69.5732 476.442C69.5732 475.613 69.8287 474.935 70.3397 474.409C70.8506 473.876 71.4912 473.61 72.2613 473.61C72.9129 473.61 73.4387 473.776 73.8386 474.109C74.2459 474.443 74.5125 474.843 74.6383 475.309L73.6942 475.709C73.6127 475.398 73.4572 475.131 73.2277 474.909C72.9981 474.687 72.676 474.576 72.2613 474.576ZM77.1501 479.119H76.106V471.077H77.1501V479.119ZM82.5916 478.475C82.4509 478.741 82.2361 478.945 81.9473 479.086C81.6585 479.219 81.3475 479.286 81.0143 479.286C80.4071 479.286 79.922 479.086 79.5592 478.686C79.1963 478.279 79.0149 477.764 79.0149 477.142V473.776H80.059V476.986C80.059 477.386 80.1553 477.716 80.3478 477.975C80.5478 478.234 80.8551 478.364 81.2698 478.364C81.6845 478.364 81.9992 478.242 82.2139 477.997C82.4287 477.745 82.5361 477.412 82.5361 476.997V473.776H83.5802V478.13C83.5802 478.478 83.5987 478.808 83.6357 479.119H82.636C82.6064 478.956 82.5916 478.741 82.5916 478.475ZM86.5933 479.119H85.5603V473.776H86.5933V479.119ZM85.5381 472.288C85.3974 472.14 85.327 471.962 85.327 471.755C85.327 471.547 85.3974 471.37 85.5381 471.221C85.6862 471.073 85.8639 470.999 86.0712 470.999C86.2786 470.999 86.4563 471.073 86.6044 471.221C86.7525 471.362 86.8266 471.54 86.8266 471.755C86.8266 471.962 86.7525 472.14 86.6044 472.288C86.4563 472.428 86.2786 472.499 86.0712 472.499C85.8639 472.499 85.6862 472.428 85.5381 472.288ZM91.5339 473.721V474.831C91.3784 474.809 91.2266 474.798 91.0785 474.798C90.101 474.798 89.6122 475.346 89.6122 476.442V479.119H88.5681V473.776H89.59V474.709C89.9158 474.028 90.449 473.687 91.1895 473.687C91.308 473.687 91.4228 473.698 91.5339 473.721ZM99.3415 478.475C99.2008 478.741 98.9861 478.945 98.6973 479.086C98.4085 479.219 98.0974 479.286 97.7642 479.286C97.157 479.286 96.6719 479.086 96.3091 478.686C95.9462 478.279 95.7648 477.764 95.7648 477.142V473.776H96.8089V476.986C96.8089 477.386 96.9052 477.716 97.0977 477.975C97.2977 478.234 97.605 478.364 98.0197 478.364C98.4344 478.364 98.7491 478.242 98.9638 477.997C99.1786 477.745 99.286 477.412 99.286 476.997V473.776H100.33V478.13C100.33 478.478 100.349 478.808 100.386 479.119H99.3859C99.3563 478.956 99.3415 478.741 99.3415 478.475ZM103.354 476.031V479.119H102.31V473.776H103.332V474.543C103.688 473.928 104.236 473.621 104.976 473.621C105.591 473.621 106.061 473.817 106.387 474.209C106.72 474.602 106.887 475.109 106.887 475.731V479.119H105.842V475.909C105.842 475.013 105.428 474.565 104.598 474.565C104.206 474.565 103.899 474.706 103.676 474.987C103.462 475.261 103.354 475.609 103.354 476.031ZM108.413 477.686C108.413 477.227 108.561 476.86 108.857 476.586C109.153 476.305 109.546 476.131 110.034 476.064L111.478 475.853C111.752 475.816 111.889 475.683 111.889 475.453C111.889 475.172 111.793 474.943 111.6 474.765C111.408 474.587 111.119 474.498 110.734 474.498C110.379 474.498 110.097 474.598 109.89 474.798C109.683 474.991 109.56 475.25 109.523 475.576L108.524 475.342C108.575 474.831 108.809 474.417 109.223 474.098C109.638 473.773 110.134 473.61 110.712 473.61C111.467 473.61 112.026 473.795 112.389 474.165C112.752 474.528 112.933 474.994 112.933 475.565V478.242C112.933 478.56 112.956 478.852 113 479.119H111.978C111.941 478.897 111.923 478.656 111.923 478.397C111.774 478.634 111.556 478.841 111.267 479.019C110.986 479.197 110.63 479.286 110.201 479.286C109.675 479.286 109.246 479.13 108.912 478.819C108.579 478.501 108.413 478.123 108.413 477.686ZM110.345 478.408C110.812 478.408 111.186 478.282 111.467 478.03C111.749 477.779 111.889 477.379 111.889 476.831V476.586L110.256 476.831C110.019 476.868 109.831 476.953 109.69 477.086C109.549 477.22 109.479 477.401 109.479 477.631C109.479 477.838 109.557 478.019 109.712 478.175C109.875 478.33 110.086 478.408 110.345 478.408ZM118.778 479.119H117.734V471.077H118.778V479.119ZM121.43 475.898H124.351C124.336 475.498 124.203 475.172 123.951 474.92C123.7 474.661 123.344 474.532 122.885 474.532C122.47 474.532 122.13 474.669 121.863 474.943C121.596 475.209 121.452 475.528 121.43 475.898ZM124.507 477.286L125.406 477.597C125.251 478.093 124.962 478.501 124.54 478.819C124.118 479.13 123.607 479.286 123.007 479.286C122.259 479.286 121.622 479.03 121.097 478.519C120.578 478.001 120.319 477.305 120.319 476.431C120.319 475.616 120.571 474.943 121.074 474.409C121.578 473.876 122.178 473.61 122.874 473.61C123.681 473.61 124.31 473.865 124.762 474.376C125.214 474.88 125.44 475.557 125.44 476.409C125.44 476.542 125.432 476.653 125.418 476.742H121.397C121.404 477.216 121.559 477.605 121.863 477.908C122.174 478.212 122.555 478.364 123.007 478.364C123.77 478.364 124.27 478.005 124.507 477.286ZM128.371 472.088V473.776H129.526V474.72H128.371V477.497C128.371 477.749 128.426 477.934 128.537 478.053C128.656 478.171 128.848 478.23 129.115 478.23C129.27 478.23 129.407 478.216 129.526 478.186V479.075C129.348 479.141 129.111 479.175 128.815 479.175C128.356 479.175 127.993 479.041 127.726 478.775C127.46 478.508 127.326 478.134 127.326 477.653V474.72H126.304V473.776H126.593C126.867 473.776 127.071 473.702 127.204 473.554C127.345 473.399 127.415 473.199 127.415 472.954V472.088H128.371ZM133.975 473.721V474.831C133.82 474.809 133.668 474.798 133.52 474.798C132.542 474.798 132.053 475.346 132.053 476.442V479.119H131.009V473.776H132.031V474.709C132.357 474.028 132.89 473.687 133.631 473.687C133.749 473.687 133.864 473.698 133.975 473.721ZM134.953 477.686C134.953 477.227 135.101 476.86 135.397 476.586C135.694 476.305 136.086 476.131 136.575 476.064L138.019 475.853C138.293 475.816 138.43 475.683 138.43 475.453C138.43 475.172 138.333 474.943 138.141 474.765C137.948 474.587 137.66 474.498 137.275 474.498C136.919 474.498 136.638 474.598 136.43 474.798C136.223 474.991 136.101 475.25 136.064 475.576L135.064 475.342C135.116 474.831 135.349 474.417 135.764 474.098C136.179 473.773 136.675 473.61 137.252 473.61C138.008 473.61 138.567 473.795 138.93 474.165C139.292 474.528 139.474 474.994 139.474 475.565V478.242C139.474 478.56 139.496 478.852 139.54 479.119H138.519C138.482 478.897 138.463 478.656 138.463 478.397C138.315 478.634 138.096 478.841 137.808 479.019C137.526 479.197 137.171 479.286 136.741 479.286C136.216 479.286 135.786 479.13 135.453 478.819C135.12 478.501 134.953 478.123 134.953 477.686ZM136.886 478.408C137.352 478.408 137.726 478.282 138.008 478.03C138.289 477.779 138.43 477.379 138.43 476.831V476.586L136.797 476.831C136.56 476.868 136.371 476.953 136.23 477.086C136.09 477.22 136.019 477.401 136.019 477.631C136.019 477.838 136.097 478.019 136.253 478.175C136.416 478.33 136.627 478.408 136.886 478.408ZM141.188 478.408C141.188 478.208 141.265 478.034 141.421 477.886C141.576 477.738 141.769 477.664 141.999 477.664C142.25 477.664 142.461 477.756 142.632 477.942C142.809 478.127 142.898 478.386 142.898 478.719C142.898 479.386 142.728 479.9 142.387 480.263C142.047 480.626 141.669 480.833 141.254 480.885V480.308C141.521 480.248 141.739 480.1 141.91 479.863C142.08 479.634 142.169 479.382 142.176 479.108C142.124 479.145 142.043 479.163 141.932 479.163C141.717 479.163 141.539 479.097 141.399 478.964C141.258 478.823 141.188 478.638 141.188 478.408ZM151.259 478.475C151.118 478.741 150.903 478.945 150.614 479.086C150.326 479.219 150.015 479.286 149.681 479.286C149.074 479.286 148.589 479.086 148.226 478.686C147.863 478.279 147.682 477.764 147.682 477.142V473.776H148.726V476.986C148.726 477.386 148.822 477.716 149.015 477.975C149.215 478.234 149.522 478.364 149.937 478.364C150.351 478.364 150.666 478.242 150.881 477.997C151.096 477.745 151.203 477.412 151.203 476.997V473.776H152.247V478.13C152.247 478.478 152.266 478.808 152.303 479.119H151.303C151.273 478.956 151.259 478.741 151.259 478.475ZM155.271 476.031V479.119H154.227V473.776H155.249V474.543C155.605 473.928 156.153 473.621 156.893 473.621C157.508 473.621 157.978 473.817 158.304 474.209C158.637 474.602 158.804 475.109 158.804 475.731V479.119H157.76V475.909C157.76 475.013 157.345 474.565 156.515 474.565C156.123 474.565 155.816 474.706 155.594 474.987C155.379 475.261 155.271 475.609 155.271 476.031ZM164.682 476.031V479.119H163.638V473.776H164.66V474.543C165.016 473.928 165.564 473.621 166.304 473.621C166.919 473.621 167.389 473.817 167.715 474.209C168.048 474.602 168.215 475.109 168.215 475.731V479.119H167.17V475.909C167.17 475.013 166.756 474.565 165.926 474.565C165.534 474.565 165.227 474.706 165.004 474.987C164.79 475.261 164.682 475.609 164.682 476.031ZM173.486 478.475C173.346 478.741 173.131 478.945 172.842 479.086C172.553 479.219 172.242 479.286 171.909 479.286C171.302 479.286 170.817 479.086 170.454 478.686C170.091 478.279 169.91 477.764 169.91 477.142V473.776H170.954V476.986C170.954 477.386 171.05 477.716 171.243 477.975C171.443 478.234 171.75 478.364 172.165 478.364C172.579 478.364 172.894 478.242 173.109 477.997C173.324 477.745 173.431 477.412 173.431 476.997V473.776H174.475V478.13C174.475 478.478 174.494 478.808 174.531 479.119H173.531C173.501 478.956 173.486 478.741 173.486 478.475ZM173.775 471.466L172.376 473.088H171.498L172.465 471.466H173.775ZM177.488 479.119H176.455V473.776H177.455V474.487C177.618 474.206 177.847 473.991 178.144 473.843C178.44 473.695 178.751 473.621 179.077 473.621C179.425 473.621 179.743 473.706 180.032 473.876C180.321 474.046 180.535 474.298 180.676 474.632C181.046 473.958 181.642 473.621 182.464 473.621C182.975 473.621 183.409 473.795 183.764 474.143C184.127 474.491 184.308 474.994 184.308 475.653V479.119H183.275V475.764C183.275 475.394 183.179 475.098 182.986 474.876C182.801 474.654 182.52 474.543 182.142 474.543C181.779 474.543 181.483 474.672 181.254 474.931C181.024 475.183 180.909 475.502 180.909 475.887V479.119H179.865V475.764C179.865 475.394 179.769 475.098 179.576 474.876C179.391 474.654 179.11 474.543 178.732 474.543C178.362 474.543 178.062 474.669 177.833 474.92C177.603 475.172 177.488 475.498 177.488 475.898V479.119ZM186.855 475.898H189.776C189.762 475.498 189.628 475.172 189.377 474.92C189.125 474.661 188.769 474.532 188.31 474.532C187.895 474.532 187.555 474.669 187.288 474.943C187.022 475.209 186.877 475.528 186.855 475.898ZM189.932 477.286L190.832 477.597C190.676 478.093 190.387 478.501 189.965 478.819C189.543 479.13 189.032 479.286 188.432 479.286C187.684 479.286 187.048 479.03 186.522 478.519C186.003 478.001 185.744 477.305 185.744 476.431C185.744 475.616 185.996 474.943 186.5 474.409C187.003 473.876 187.603 473.61 188.299 473.61C189.106 473.61 189.736 473.865 190.187 474.376C190.639 474.88 190.865 475.557 190.865 476.409C190.865 476.542 190.858 476.653 190.843 476.742H186.822C186.829 477.216 186.985 477.605 187.288 477.908C187.599 478.212 187.981 478.364 188.432 478.364C189.195 478.364 189.695 478.005 189.932 477.286ZM195.362 473.721V474.831C195.206 474.809 195.055 474.798 194.906 474.798C193.929 474.798 193.44 475.346 193.44 476.442V479.119H192.396V473.776H193.418V474.709C193.744 474.028 194.277 473.687 195.018 473.687C195.136 473.687 195.251 473.698 195.362 473.721ZM197.719 477.853C198.044 478.186 198.441 478.353 198.907 478.353C199.374 478.353 199.766 478.186 200.084 477.853C200.41 477.512 200.573 477.042 200.573 476.442C200.573 475.85 200.41 475.387 200.084 475.054C199.766 474.713 199.374 474.543 198.907 474.543C198.441 474.543 198.044 474.713 197.719 475.054C197.4 475.387 197.241 475.85 197.241 476.442C197.241 477.042 197.4 477.512 197.719 477.853ZM196.941 474.42C197.459 473.88 198.115 473.61 198.907 473.61C199.699 473.61 200.351 473.88 200.862 474.42C201.38 474.954 201.64 475.627 201.64 476.442C201.64 477.264 201.384 477.945 200.873 478.486C200.362 479.019 199.707 479.286 198.907 479.286C198.107 479.286 197.452 479.019 196.941 478.486C196.43 477.945 196.175 477.264 196.175 476.442C196.175 475.627 196.43 474.954 196.941 474.42ZM207.482 481.352H206.338L207.671 478.53L205.372 473.776H206.571L208.237 477.464L209.837 473.776H210.959L207.482 481.352ZM216.536 472.088V473.776H217.692V474.72H216.536V477.497C216.536 477.749 216.592 477.934 216.703 478.053C216.822 478.171 217.014 478.23 217.281 478.23C217.436 478.23 217.573 478.216 217.692 478.186V479.075C217.514 479.141 217.277 479.175 216.981 479.175C216.522 479.175 216.159 479.041 215.892 478.775C215.626 478.508 215.492 478.134 215.492 477.653V474.72H214.47V473.776H214.759C215.033 473.776 215.237 473.702 215.37 473.554C215.511 473.399 215.581 473.199 215.581 472.954V472.088H216.536ZM219.907 475.898H222.828C222.814 475.498 222.68 475.172 222.428 474.92C222.177 474.661 221.821 474.532 221.362 474.532C220.947 474.532 220.607 474.669 220.34 474.943C220.074 475.209 219.929 475.528 219.907 475.898ZM222.984 477.286L223.884 477.597C223.728 478.093 223.439 478.501 223.017 478.819C222.595 479.13 222.084 479.286 221.484 479.286C220.736 479.286 220.1 479.03 219.574 478.519C219.055 478.001 218.796 477.305 218.796 476.431C218.796 475.616 219.048 474.943 219.552 474.409C220.055 473.876 220.655 473.61 221.351 473.61C222.158 473.61 222.788 473.865 223.239 474.376C223.691 474.88 223.917 475.557 223.917 476.409C223.917 476.542 223.91 476.653 223.895 476.742H219.874C219.881 477.216 220.037 477.605 220.34 477.908C220.651 478.212 221.033 478.364 221.484 478.364C222.247 478.364 222.747 478.005 222.984 477.286ZM226.492 476.031V479.119H225.448V473.776H226.47V474.543C226.825 473.928 227.373 473.621 228.114 473.621C228.729 473.621 229.199 473.817 229.525 474.209C229.858 474.602 230.024 475.109 230.024 475.731V479.119H228.98V475.909C228.98 475.013 228.566 474.565 227.736 474.565C227.344 474.565 227.037 474.706 226.814 474.987C226.6 475.261 226.492 475.609 226.492 476.031ZM232.561 475.898H235.483C235.468 475.498 235.335 475.172 235.083 474.92C234.831 474.661 234.476 474.532 234.016 474.532C233.602 474.532 233.261 474.669 232.994 474.943C232.728 475.209 232.583 475.528 232.561 475.898ZM235.638 477.286L236.538 477.597C236.382 478.093 236.094 478.501 235.671 478.819C235.249 479.13 234.738 479.286 234.139 479.286C233.391 479.286 232.754 479.03 232.228 478.519C231.71 478.001 231.451 477.305 231.451 476.431C231.451 475.616 231.702 474.943 232.206 474.409C232.709 473.876 233.309 473.61 234.005 473.61C234.812 473.61 235.442 473.865 235.894 474.376C236.345 474.88 236.571 475.557 236.571 476.409C236.571 476.542 236.564 476.653 236.549 476.742H232.528C232.535 477.216 232.691 477.605 232.994 477.908C233.305 478.212 233.687 478.364 234.139 478.364C234.901 478.364 235.401 478.005 235.638 477.286ZM241.068 473.721V474.831C240.913 474.809 240.761 474.798 240.613 474.798C239.635 474.798 239.146 475.346 239.146 476.442V479.119H238.102V473.776H239.124V474.709C239.45 474.028 239.983 473.687 240.724 473.687C240.842 473.687 240.957 473.698 241.068 473.721ZM245.021 477.686C245.021 477.227 245.169 476.86 245.466 476.586C245.762 476.305 246.154 476.131 246.643 476.064L248.087 475.853C248.361 475.816 248.498 475.683 248.498 475.453C248.498 475.172 248.402 474.943 248.209 474.765C248.017 474.587 247.728 474.498 247.343 474.498C246.987 474.498 246.706 474.598 246.499 474.798C246.291 474.991 246.169 475.25 246.132 475.576L245.132 475.342C245.184 474.831 245.418 474.417 245.832 474.098C246.247 473.773 246.743 473.61 247.321 473.61C248.076 473.61 248.635 473.795 248.998 474.165C249.361 474.528 249.542 474.994 249.542 475.565V478.242C249.542 478.56 249.564 478.852 249.609 479.119H248.587C248.55 478.897 248.531 478.656 248.531 478.397C248.383 478.634 248.165 478.841 247.876 479.019C247.595 479.197 247.239 479.286 246.81 479.286C246.284 479.286 245.854 479.13 245.521 478.819C245.188 478.501 245.021 478.123 245.021 477.686ZM246.954 478.408C247.421 478.408 247.795 478.282 248.076 478.03C248.357 477.779 248.498 477.379 248.498 476.831V476.586L246.865 476.831C246.628 476.868 246.439 476.953 246.299 477.086C246.158 477.22 246.088 477.401 246.088 477.631C246.088 477.838 246.165 478.019 246.321 478.175C246.484 478.33 246.695 478.408 246.954 478.408ZM252.411 479.119H251.367V471.077H252.411V479.119ZM31.219 492.119H30.186V486.776H31.1856V487.487C31.3486 487.206 31.5781 486.991 31.8743 486.843C32.1705 486.695 32.4815 486.621 32.8074 486.621C33.1554 486.621 33.4738 486.706 33.7626 486.876C34.0514 487.046 34.2662 487.298 34.4069 487.632C34.7771 486.958 35.3733 486.621 36.1952 486.621C36.7062 486.621 37.1394 486.795 37.4948 487.143C37.8577 487.491 38.0391 487.994 38.0391 488.653V492.119H37.0061V488.764C37.0061 488.394 36.9098 488.098 36.7173 487.876C36.5322 487.654 36.2508 487.543 35.8731 487.543C35.5103 487.543 35.214 487.672 34.9845 487.931C34.7549 488.183 34.6401 488.502 34.6401 488.887V492.119H33.596V488.764C33.596 488.394 33.4998 488.098 33.3072 487.876C33.1221 487.654 32.8407 487.543 32.463 487.543C32.0928 487.543 31.7929 487.669 31.5633 487.92C31.3337 488.172 31.219 488.498 31.219 488.898V492.119ZM40.5859 488.898H43.5072C43.4924 488.498 43.3591 488.172 43.1073 487.92C42.8556 487.661 42.5001 487.532 42.041 487.532C41.6263 487.532 41.2857 487.669 41.0191 487.943C40.7525 488.209 40.6081 488.528 40.5859 488.898ZM43.6627 490.286L44.5624 490.597C44.4069 491.093 44.1181 491.501 43.696 491.819C43.2739 492.13 42.763 492.286 42.1632 492.286C41.4153 492.286 40.7784 492.03 40.2526 491.519C39.7343 491.001 39.4751 490.305 39.4751 489.431C39.4751 488.616 39.7269 487.943 40.2304 487.409C40.734 486.876 41.3338 486.61 42.0299 486.61C42.837 486.61 43.4665 486.865 43.9182 487.376C44.3699 487.88 44.5958 488.557 44.5958 489.409C44.5958 489.542 44.5884 489.653 44.5735 489.742H40.5526C40.56 490.216 40.7155 490.605 41.0191 490.908C41.3301 491.212 41.7115 491.364 42.1632 491.364C42.9259 491.364 43.4257 491.005 43.6627 490.286ZM47.1711 489.031V492.119H46.127V486.776H47.1489V487.543C47.5043 486.928 48.0523 486.621 48.7928 486.621C49.4074 486.621 49.8777 486.817 50.2035 487.209C50.5367 487.602 50.7033 488.109 50.7033 488.731V492.119H49.6592V488.909C49.6592 488.013 49.2445 487.565 48.4151 487.565C48.0227 487.565 47.7154 487.706 47.4932 487.987C47.2785 488.261 47.1711 488.609 47.1711 489.031ZM53.6622 490.853C53.988 491.186 54.3842 491.353 54.8507 491.353C55.3173 491.353 55.7097 491.186 56.0282 490.853C56.354 490.512 56.5169 490.042 56.5169 489.442C56.5169 488.85 56.354 488.387 56.0282 488.054C55.7097 487.713 55.3173 487.543 54.8507 487.543C54.3842 487.543 53.988 487.713 53.6622 488.054C53.3438 488.387 53.1846 488.85 53.1846 489.442C53.1846 490.042 53.3438 490.512 53.6622 490.853ZM52.8847 487.42C53.403 486.88 54.0584 486.61 54.8507 486.61C55.6431 486.61 56.2947 486.88 56.8057 487.42C57.3241 487.954 57.5832 488.627 57.5832 489.442C57.5832 490.264 57.3278 490.945 56.8168 491.486C56.3059 492.019 55.6505 492.286 54.8507 492.286C54.051 492.286 53.3956 492.019 52.8847 491.486C52.3737 490.945 52.1182 490.264 52.1182 489.442C52.1182 488.627 52.3737 487.954 52.8847 487.42ZM58.6176 490.731L59.5618 490.397C59.5988 490.686 59.7247 490.927 59.9394 491.119C60.1542 491.304 60.443 491.397 60.8058 491.397C61.0872 491.397 61.3094 491.33 61.4723 491.197C61.6352 491.056 61.7167 490.886 61.7167 490.686C61.7167 490.331 61.4871 490.101 61.028 489.997L60.1172 489.798C59.7025 489.709 59.3766 489.531 59.1397 489.264C58.9027 488.998 58.7842 488.676 58.7842 488.298C58.7842 487.839 58.9694 487.443 59.3396 487.109C59.7173 486.776 60.1653 486.61 60.6837 486.61C61.0243 486.61 61.3279 486.661 61.5945 486.765C61.8611 486.861 62.0684 486.991 62.2165 487.154C62.3646 487.317 62.4757 487.469 62.5498 487.609C62.6238 487.75 62.6793 487.894 62.7164 488.042L61.7944 488.387C61.7796 488.298 61.7537 488.213 61.7167 488.131C61.6796 488.042 61.6204 487.946 61.5389 487.843C61.4649 487.739 61.3538 487.657 61.2057 487.598C61.0576 487.532 60.8836 487.498 60.6837 487.498C60.4245 487.498 60.2097 487.569 60.0394 487.709C59.8765 487.85 59.795 488.017 59.795 488.209C59.795 488.55 59.9987 488.764 60.406 488.853L61.2724 489.042C61.7463 489.146 62.1091 489.338 62.3609 489.62C62.6201 489.894 62.7497 490.231 62.7497 490.631C62.7497 491.053 62.5757 491.434 62.2276 491.775C61.887 492.115 61.4094 492.286 60.7947 492.286C60.1357 492.286 59.621 492.123 59.2508 491.797C58.8805 491.464 58.6695 491.108 58.6176 490.731ZM69.535 487.987C69.92 487.98 70.2385 487.868 70.4902 487.654C70.742 487.439 70.8679 487.158 70.8679 486.81C70.8679 486.484 70.7457 486.21 70.5014 485.988C70.257 485.765 69.9349 485.654 69.535 485.654C69.1351 485.654 68.813 485.765 68.5686 485.988C68.3242 486.21 68.2021 486.484 68.2021 486.81C68.2021 487.158 68.3279 487.439 68.5797 487.654C68.8315 487.868 69.1499 487.98 69.535 487.987ZM68.4242 490.997C68.6982 491.227 69.0685 491.341 69.535 491.341C70.0015 491.341 70.3681 491.227 70.6346 490.997C70.9086 490.768 71.0456 490.479 71.0456 490.131C71.0456 489.775 70.9086 489.483 70.6346 489.253C70.3681 489.016 70.0015 488.898 69.535 488.898C69.0685 488.898 68.6982 489.016 68.4242 489.253C68.1576 489.483 68.0243 489.775 68.0243 490.131C68.0243 490.479 68.1576 490.768 68.4242 490.997ZM71.4455 491.708C70.979 492.093 70.3421 492.286 69.535 492.286C68.7278 492.286 68.091 492.093 67.6245 491.708C67.1579 491.316 66.9247 490.819 66.9247 490.22C66.9247 489.798 67.0506 489.431 67.3023 489.12C67.5615 488.802 67.891 488.576 68.2909 488.442C67.9503 488.316 67.6689 488.102 67.4467 487.798C67.2246 487.487 67.1135 487.139 67.1135 486.754C67.1135 486.169 67.3431 485.691 67.8022 485.321C68.2613 484.943 68.8389 484.755 69.535 484.755C70.2311 484.755 70.8087 484.943 71.2678 485.321C71.7269 485.691 71.9565 486.169 71.9565 486.754C71.9565 487.132 71.8454 487.476 71.6232 487.787C71.4011 488.098 71.1197 488.316 70.779 488.442C71.1789 488.568 71.5048 488.79 71.7565 489.109C72.0157 489.427 72.1453 489.798 72.1453 490.22C72.1453 490.819 71.912 491.316 71.4455 491.708ZM78.9464 487.576C78.4947 487.576 78.1096 487.739 77.7912 488.065C77.4802 488.391 77.3247 488.85 77.3247 489.442C77.3247 490.027 77.4802 490.486 77.7912 490.819C78.1096 491.153 78.4984 491.319 78.9575 491.319C79.4018 491.319 79.7387 491.208 79.9683 490.986C80.2053 490.764 80.3645 490.508 80.4459 490.22L81.3679 490.619C81.2198 491.064 80.9384 491.453 80.5237 491.786C80.1164 492.119 79.5943 492.286 78.9575 492.286C78.1799 492.286 77.5357 492.015 77.0247 491.475C76.5138 490.934 76.2583 490.257 76.2583 489.442C76.2583 488.613 76.5138 487.935 77.0247 487.409C77.5357 486.876 78.1762 486.61 78.9464 486.61C79.598 486.61 80.1238 486.776 80.5237 487.109C80.931 487.443 81.1975 487.843 81.3234 488.309L80.3793 488.709C80.2978 488.398 80.1423 488.131 79.9128 487.909C79.6832 487.687 79.3611 487.576 78.9464 487.576ZM82.4036 490.686C82.4036 490.227 82.5517 489.86 82.8479 489.586C83.1441 489.305 83.5366 489.131 84.0254 489.064L85.4694 488.853C85.7434 488.816 85.8803 488.683 85.8803 488.453C85.8803 488.172 85.7841 487.943 85.5915 487.765C85.399 487.587 85.1102 487.498 84.7251 487.498C84.3697 487.498 84.0883 487.598 83.881 487.798C83.6736 487.991 83.5514 488.25 83.5144 488.576L82.5147 488.342C82.5665 487.831 82.7998 487.417 83.2145 487.098C83.6292 486.773 84.1253 486.61 84.7029 486.61C85.4583 486.61 86.0173 486.795 86.3802 487.165C86.743 487.528 86.9245 487.994 86.9245 488.565V491.242C86.9245 491.56 86.9467 491.852 86.9911 492.119H85.9692C85.9322 491.897 85.9137 491.656 85.9137 491.397C85.7656 491.634 85.5471 491.841 85.2583 492.019C84.9769 492.197 84.6215 492.286 84.192 492.286C83.6662 492.286 83.2367 492.13 82.9035 491.819C82.5702 491.501 82.4036 491.123 82.4036 490.686ZM84.3364 491.408C84.8029 491.408 85.1769 491.282 85.4583 491.03C85.7397 490.779 85.8803 490.379 85.8803 489.831V489.586L84.2475 489.831C84.0106 489.868 83.8217 489.953 83.681 490.086C83.5403 490.22 83.47 490.401 83.47 490.631C83.47 490.838 83.5477 491.019 83.7032 491.175C83.8661 491.33 84.0772 491.408 84.3364 491.408ZM91.7152 486.721V487.831C91.5597 487.809 91.4079 487.798 91.2598 487.798C90.2823 487.798 89.7935 488.346 89.7935 489.442V492.119H88.7494V486.776H89.7713V487.709C90.0971 487.028 90.6303 486.687 91.3708 486.687C91.4893 486.687 91.6041 486.698 91.7152 486.721ZM92.6931 490.686C92.6931 490.227 92.8413 489.86 93.1375 489.586C93.4337 489.305 93.8261 489.131 94.3149 489.064L95.7589 488.853C96.0329 488.816 96.1699 488.683 96.1699 488.453C96.1699 488.172 96.0736 487.943 95.8811 487.765C95.6885 487.587 95.3997 487.498 95.0147 487.498C94.6592 487.498 94.3778 487.598 94.1705 487.798C93.9631 487.991 93.8409 488.25 93.8039 488.576L92.8042 488.342C92.8561 487.831 93.0893 487.417 93.504 487.098C93.9187 486.773 94.4148 486.61 94.9924 486.61C95.7478 486.61 96.3069 486.795 96.6697 487.165C97.0326 487.528 97.214 487.994 97.214 488.565V491.242C97.214 491.56 97.2362 491.852 97.2806 492.119H96.2587C96.2217 491.897 96.2032 491.656 96.2032 491.397C96.0551 491.634 95.8366 491.841 95.5478 492.019C95.2664 492.197 94.911 492.286 94.4815 492.286C93.9557 492.286 93.5262 492.13 93.193 491.819C92.8598 491.501 92.6931 491.123 92.6931 490.686ZM94.6259 491.408C95.0924 491.408 95.4664 491.282 95.7478 491.03C96.0292 490.779 96.1699 490.379 96.1699 489.831V489.586L94.537 489.831C94.3001 489.868 94.1112 489.953 93.9705 490.086C93.8298 490.22 93.7595 490.401 93.7595 490.631C93.7595 490.838 93.8372 491.019 93.9928 491.175C94.1557 491.33 94.3667 491.408 94.6259 491.408ZM101.283 487.576C100.831 487.576 100.446 487.739 100.127 488.065C99.8165 488.391 99.661 488.85 99.661 489.442C99.661 490.027 99.8165 490.486 100.127 490.819C100.446 491.153 100.835 491.319 101.294 491.319C101.738 491.319 102.075 491.208 102.305 490.986C102.542 490.764 102.701 490.508 102.782 490.22L103.704 490.619C103.556 491.064 103.275 491.453 102.86 491.786C102.453 492.119 101.931 492.286 101.294 492.286C100.516 492.286 99.872 492.015 99.3611 491.475C98.8501 490.934 98.5946 490.257 98.5946 489.442C98.5946 488.613 98.8501 487.935 99.3611 487.409C99.872 486.876 100.513 486.61 101.283 486.61C101.934 486.61 102.46 486.776 102.86 487.109C103.267 487.443 103.534 487.843 103.66 488.309L102.716 488.709C102.634 488.398 102.479 488.131 102.249 487.909C102.02 487.687 101.697 487.576 101.283 487.576ZM106.527 485.088V486.776H107.682V487.72H106.527V490.497C106.527 490.749 106.583 490.934 106.694 491.053C106.812 491.171 107.005 491.23 107.271 491.23C107.427 491.23 107.564 491.216 107.682 491.186V492.075C107.504 492.141 107.267 492.175 106.971 492.175C106.512 492.175 106.149 492.041 105.883 491.775C105.616 491.508 105.483 491.134 105.483 490.653V487.72H104.461V486.776H104.75C105.024 486.776 105.227 486.702 105.361 486.554C105.501 486.399 105.572 486.199 105.572 485.954V485.088H106.527ZM109.898 488.898H112.819C112.804 488.498 112.671 488.172 112.419 487.92C112.167 487.661 111.812 487.532 111.353 487.532C110.938 487.532 110.597 487.669 110.331 487.943C110.064 488.209 109.92 488.528 109.898 488.898ZM112.974 490.286L113.874 490.597C113.719 491.093 113.43 491.501 113.008 491.819C112.586 492.13 112.075 492.286 111.475 492.286C110.727 492.286 110.09 492.03 109.564 491.519C109.046 491.001 108.787 490.305 108.787 489.431C108.787 488.616 109.039 487.943 109.542 487.409C110.046 486.876 110.645 486.61 111.342 486.61C112.149 486.61 112.778 486.865 113.23 487.376C113.682 487.88 113.907 488.557 113.907 489.409C113.907 489.542 113.9 489.653 113.885 489.742H109.864C109.872 490.216 110.027 490.605 110.331 490.908C110.642 491.212 111.023 491.364 111.475 491.364C112.238 491.364 112.737 491.005 112.974 490.286ZM118.404 486.721V487.831C118.249 487.809 118.097 487.798 117.949 487.798C116.971 487.798 116.483 488.346 116.483 489.442V492.119H115.439V486.776H116.461V487.709C116.786 487.028 117.32 486.687 118.06 486.687C118.179 486.687 118.293 486.698 118.404 486.721ZM120.339 488.898H123.26C123.245 488.498 123.112 488.172 122.86 487.92C122.609 487.661 122.253 487.532 121.794 487.532C121.379 487.532 121.039 487.669 120.772 487.943C120.506 488.209 120.361 488.528 120.339 488.898ZM123.416 490.286L124.315 490.597C124.16 491.093 123.871 491.501 123.449 491.819C123.027 492.13 122.516 492.286 121.916 492.286C121.168 492.286 120.531 492.03 120.006 491.519C119.487 491.001 119.228 490.305 119.228 489.431C119.228 488.616 119.48 487.943 119.983 487.409C120.487 486.876 121.087 486.61 121.783 486.61C122.59 486.61 123.22 486.865 123.671 487.376C124.123 487.88 124.349 488.557 124.349 489.409C124.349 489.542 124.341 489.653 124.327 489.742H120.306C120.313 490.216 120.469 490.605 120.772 490.908C121.083 491.212 121.465 491.364 121.916 491.364C122.679 491.364 123.179 491.005 123.416 490.286ZM125.38 490.731L126.324 490.397C126.361 490.686 126.487 490.927 126.702 491.119C126.917 491.304 127.206 491.397 127.568 491.397C127.85 491.397 128.072 491.33 128.235 491.197C128.398 491.056 128.479 490.886 128.479 490.686C128.479 490.331 128.25 490.101 127.791 489.997L126.88 489.798C126.465 489.709 126.139 489.531 125.902 489.264C125.665 488.998 125.547 488.676 125.547 488.298C125.547 487.839 125.732 487.443 126.102 487.109C126.48 486.776 126.928 486.61 127.446 486.61C127.787 486.61 128.09 486.661 128.357 486.765C128.624 486.861 128.831 486.991 128.979 487.154C129.127 487.317 129.238 487.469 129.312 487.609C129.386 487.75 129.442 487.894 129.479 488.042L128.557 488.387C128.542 488.298 128.516 488.213 128.479 488.131C128.442 488.042 128.383 487.946 128.301 487.843C128.227 487.739 128.116 487.657 127.968 487.598C127.82 487.532 127.646 487.498 127.446 487.498C127.187 487.498 126.972 487.569 126.802 487.709C126.639 487.85 126.558 488.017 126.558 488.209C126.558 488.55 126.761 488.764 127.168 488.853L128.035 489.042C128.509 489.146 128.872 489.338 129.123 489.62C129.383 489.894 129.512 490.231 129.512 490.631C129.512 491.053 129.338 491.434 128.99 491.775C128.65 492.115 128.172 492.286 127.557 492.286C126.898 492.286 126.384 492.123 126.013 491.797C125.643 491.464 125.432 491.108 125.38 490.731ZM131.212 491.952C131.064 491.804 130.99 491.623 130.99 491.408C130.99 491.193 131.064 491.012 131.212 490.864C131.36 490.708 131.541 490.631 131.756 490.631C131.971 490.631 132.152 490.708 132.3 490.864C132.456 491.012 132.534 491.193 132.534 491.408C132.534 491.623 132.456 491.804 132.3 491.952C132.152 492.101 131.971 492.175 131.756 492.175C131.541 492.175 131.36 492.101 131.212 491.952Z" fill="#032556"/>
<rect x="29.4609" y="514.473" width="247.543" height="38.0836" rx="12.6945" fill="#032556"/>
<path d="M128.477 537.515L126.586 533.96H125.469V537.515H123.933V528.514H127.386C128.232 528.514 128.913 528.777 129.43 529.301C129.946 529.818 130.204 530.465 130.204 531.244C130.204 531.887 130.022 532.437 129.658 532.894C129.294 533.351 128.799 533.656 128.173 533.808L130.204 537.515H128.477ZM125.469 532.615H127.106C127.572 532.615 127.944 532.492 128.224 532.247C128.511 531.993 128.655 531.658 128.655 531.244C128.655 530.821 128.511 530.486 128.224 530.241C127.944 529.987 127.572 529.86 127.106 529.86H125.469V532.615ZM132.719 533.744H135.753C135.736 533.355 135.596 533.029 135.334 532.767C135.08 532.505 134.712 532.373 134.229 532.373C133.789 532.373 133.434 532.513 133.163 532.792C132.892 533.063 132.744 533.381 132.719 533.744ZM135.918 535.357L137.162 535.75C136.984 536.317 136.65 536.787 136.159 537.159C135.676 537.523 135.08 537.705 134.369 537.705C133.489 537.705 132.74 537.405 132.122 536.804C131.513 536.203 131.208 535.399 131.208 534.392C131.208 533.444 131.504 532.665 132.097 532.056C132.697 531.447 133.404 531.142 134.217 531.142C135.164 531.142 135.905 531.434 136.438 532.018C136.971 532.594 137.238 533.372 137.238 534.354C137.238 534.616 137.225 534.773 137.2 534.824H132.68C132.697 535.289 132.867 535.674 133.188 535.979C133.518 536.283 133.912 536.436 134.369 536.436C135.164 536.436 135.681 536.076 135.918 535.357ZM138.399 537.858L139.757 537.502C139.808 537.891 139.973 538.209 140.252 538.454C140.54 538.708 140.891 538.835 141.306 538.835C142.474 538.835 143.058 538.217 143.058 536.982V536.334C142.914 536.597 142.686 536.812 142.372 536.982C142.059 537.151 141.691 537.235 141.268 537.235C140.439 537.235 139.753 536.952 139.212 536.385C138.678 535.818 138.412 535.099 138.412 534.227C138.412 533.389 138.678 532.678 139.212 532.094C139.745 531.51 140.43 531.218 141.268 531.218C142.174 531.218 142.783 531.519 143.096 532.12V531.333H144.518V536.931C144.518 537.845 144.26 538.602 143.743 539.203C143.227 539.812 142.427 540.117 141.344 540.117C140.549 540.117 139.88 539.901 139.338 539.47C138.797 539.038 138.484 538.501 138.399 537.858ZM141.509 535.979C141.983 535.979 142.364 535.822 142.652 535.509C142.948 535.187 143.096 534.76 143.096 534.227C143.096 533.702 142.948 533.283 142.652 532.97C142.356 532.649 141.975 532.488 141.509 532.488C141.035 532.488 140.646 532.649 140.341 532.97C140.045 533.283 139.897 533.702 139.897 534.227C139.897 534.76 140.045 535.187 140.341 535.509C140.638 535.822 141.027 535.979 141.509 535.979ZM149.462 528.679L147.799 530.558H146.593L147.723 528.679H149.462ZM147.977 537.515H146.517V531.333H147.977V537.515ZM149.529 535.839L150.811 535.484C150.837 535.78 150.959 536.03 151.18 536.233C151.4 536.436 151.696 536.537 152.068 536.537C152.356 536.537 152.58 536.47 152.741 536.334C152.91 536.199 152.995 536.03 152.995 535.826C152.995 535.471 152.754 535.242 152.271 535.141L151.357 534.938C150.824 534.819 150.414 534.599 150.126 534.278C149.838 533.956 149.694 533.575 149.694 533.135C149.694 532.594 149.914 532.128 150.354 531.739C150.794 531.341 151.332 531.142 151.967 531.142C152.373 531.142 152.732 531.201 153.046 531.32C153.359 531.438 153.6 531.595 153.769 531.79C153.947 531.976 154.082 532.158 154.175 532.335C154.269 532.513 154.328 532.691 154.353 532.869L153.109 533.224C153.075 532.987 152.965 532.775 152.779 532.589C152.601 532.395 152.33 532.297 151.967 532.297C151.713 532.297 151.501 532.369 151.332 532.513C151.163 532.649 151.078 532.814 151.078 533.008C151.078 533.355 151.285 533.571 151.7 533.656L152.639 533.846C153.215 533.973 153.655 534.201 153.96 534.532C154.264 534.862 154.417 535.259 154.417 535.725C154.417 536.241 154.209 536.702 153.795 537.109C153.388 537.506 152.817 537.705 152.081 537.705C151.658 537.705 151.277 537.642 150.938 537.515C150.608 537.388 150.346 537.227 150.151 537.032C149.965 536.829 149.817 536.63 149.707 536.436C149.605 536.233 149.546 536.034 149.529 535.839ZM157.941 529.441V531.333H159.223V532.64H157.941V535.509C157.941 535.78 158.005 535.979 158.132 536.106C158.259 536.224 158.458 536.283 158.728 536.283C158.898 536.283 159.067 536.266 159.236 536.233V537.451C159.016 537.544 158.716 537.591 158.335 537.591C157.759 537.591 157.307 537.43 156.977 537.109C156.646 536.778 156.481 536.326 156.481 535.75V532.64H155.339V531.333H155.656C155.969 531.333 156.206 531.244 156.367 531.066C156.528 530.888 156.608 530.655 156.608 530.368V529.441H157.941ZM164.441 531.294V532.792C164.272 532.767 164.111 532.754 163.959 532.754C162.85 532.754 162.296 533.359 162.296 534.57V537.515H160.823V531.333H162.258V532.323C162.402 531.993 162.634 531.735 162.956 531.548C163.278 531.354 163.641 531.256 164.048 531.256C164.183 531.256 164.314 531.269 164.441 531.294ZM165.5 535.839C165.5 535.314 165.67 534.895 166.008 534.582C166.355 534.261 166.808 534.058 167.367 533.973L168.953 533.732C169.258 533.689 169.41 533.541 169.41 533.287C169.41 533.008 169.313 532.784 169.118 532.615C168.924 532.437 168.632 532.348 168.242 532.348C167.87 532.348 167.574 532.454 167.354 532.665C167.134 532.869 167.007 533.135 166.973 533.465L165.627 533.161C165.687 532.602 165.953 532.128 166.427 531.739C166.901 531.341 167.502 531.142 168.23 531.142C169.127 531.142 169.787 531.358 170.21 531.79C170.642 532.221 170.858 532.775 170.858 533.453V536.525C170.858 536.931 170.883 537.261 170.934 537.515H169.563C169.52 537.388 169.499 537.125 169.499 536.728C169.093 537.379 168.458 537.705 167.595 537.705C166.969 537.705 166.461 537.523 166.072 537.159C165.691 536.787 165.5 536.347 165.5 535.839ZM167.874 536.55C168.331 536.55 168.699 536.427 168.979 536.182C169.266 535.928 169.41 535.517 169.41 534.95V534.671L167.798 534.912C167.248 535.005 166.973 535.285 166.973 535.75C166.973 535.97 167.053 536.161 167.214 536.321C167.375 536.474 167.595 536.55 167.874 536.55ZM174.677 529.441V531.333H175.959V532.64H174.677V535.509C174.677 535.78 174.741 535.979 174.868 536.106C174.995 536.224 175.194 536.283 175.464 536.283C175.634 536.283 175.803 536.266 175.972 536.233V537.451C175.752 537.544 175.452 537.591 175.071 537.591C174.495 537.591 174.043 537.43 173.713 537.109C173.382 536.778 173.217 536.326 173.217 535.75V532.64H172.075V531.333H172.392C172.705 531.333 172.942 531.244 173.103 531.066C173.264 530.888 173.344 530.655 173.344 530.368V529.441H174.677ZM178.637 533.744H181.671C181.654 533.355 181.515 533.029 181.252 532.767C180.998 532.505 180.63 532.373 180.148 532.373C179.708 532.373 179.352 532.513 179.081 532.792C178.811 533.063 178.662 533.381 178.637 533.744ZM181.836 535.357L183.08 535.75C182.902 536.317 182.568 536.787 182.077 537.159C181.595 537.523 180.998 537.705 180.287 537.705C179.407 537.705 178.658 537.405 178.04 536.804C177.431 536.203 177.126 535.399 177.126 534.392C177.126 533.444 177.423 532.665 178.015 532.056C178.616 531.447 179.323 531.142 180.135 531.142C181.083 531.142 181.823 531.434 182.357 532.018C182.89 532.594 183.156 533.372 183.156 534.354C183.156 534.616 183.144 534.773 183.118 534.824H178.599C178.616 535.289 178.785 535.674 179.107 535.979C179.437 536.283 179.83 536.436 180.287 536.436C181.083 536.436 181.599 536.076 181.836 535.357Z" fill="#EBFDFF"/>
<path d="M10.4191 7.48523H296.046V97.1404H10.4191V7.48523Z" fill="#032556"/>
<path d="M125.415 79.9542L125.542 81.4775C125.542 81.4775 125.129 81.5886 124.478 81.5886C121.368 81.5886 122.241 77.7485 119.766 77.7485H119.163V81.4775H117.163V71.0045H120.607C123.241 71.0045 124.685 72.0518 124.685 74.4479C124.685 75.9078 123.86 76.9075 122.495 77.3994C123.701 78.0024 123.717 79.9859 125.097 79.9859C125.272 79.9859 125.415 79.9542 125.415 79.9542ZM119.163 76.3045H120.337C121.717 76.3045 122.701 75.6539 122.701 74.4638C122.701 73.242 121.908 72.6072 120.496 72.6072H119.163V76.3045ZM130.602 80.0653C131.681 80.0653 132.268 79.5575 132.585 79.1767L133.569 80.2398C132.998 80.9856 131.903 81.5727 130.396 81.5727C127.904 81.5727 126.397 80.0018 126.397 77.7485C126.397 75.4952 127.888 73.8926 130.189 73.8926C132.379 73.8926 133.633 75.4 133.633 77.4153C133.633 77.8913 133.553 78.1928 133.553 78.1928H128.349C128.523 79.3036 129.285 80.0653 130.602 80.0653ZM130.189 75.4C129.221 75.4 128.523 76.0506 128.349 77.0979H131.808C131.792 76.1141 131.173 75.4 130.189 75.4ZM139.581 80.224C141.39 80.224 142.596 80.938 142.596 82.3979C142.596 83.6356 141.66 84.794 138.566 84.794C135.836 84.794 134.599 84.0006 134.599 82.8105C134.599 82.0647 135.075 81.5569 135.868 81.2871C135.36 81.0015 135.043 80.5413 135.043 79.9225C135.043 79.2243 135.519 78.7641 136.09 78.5737C135.551 78.0818 135.249 77.4312 135.249 76.6377C135.249 75.0033 136.566 73.9084 138.534 73.9084C139.343 73.9084 140.041 74.083 140.581 74.4003C141.105 74.1306 141.311 73.4482 141.311 72.6072L142.802 72.9881C142.802 74.2417 141.898 74.8922 141.295 75.0192C141.66 75.4476 141.85 76.003 141.85 76.6377C141.85 78.2722 140.533 79.3829 138.55 79.3829C138.042 79.3829 137.582 79.3036 137.185 79.1767C136.804 79.256 136.598 79.4147 136.598 79.6686C136.598 80.097 137.011 80.224 137.931 80.224H139.581ZM137.09 76.6377C137.074 77.4153 137.645 77.9389 138.534 77.9389C139.438 77.9548 140.026 77.4312 140.041 76.6536C140.041 75.8761 139.454 75.3524 138.566 75.3366C137.677 75.3366 137.09 75.8602 137.09 76.6377ZM138.566 83.3976C140.2 83.3976 140.803 83.0961 140.803 82.4772C140.803 81.8742 140.327 81.7156 139.359 81.7156H137.867C136.709 81.7156 136.344 82.0488 136.344 82.509C136.344 83.112 136.963 83.3976 138.566 83.3976ZM145.766 72.8611L144.037 72.9405L144.957 70.3381H147.321L145.766 72.8611ZM143.973 81.4775V73.9878L145.909 73.9243V81.4775H143.973ZM152.187 76.6219C152.203 76.5584 152.219 76.4315 152.219 76.3204C152.219 75.6698 151.695 75.2572 150.87 75.2572C150.077 75.2572 149.648 75.6222 149.648 76.13C149.648 77.7009 154.06 76.4949 154.091 79.3671C154.091 80.7159 152.854 81.5727 150.87 81.5727C148.744 81.5727 147.728 80.6683 147.458 80.4461L148.426 79.256C148.633 79.4464 149.696 80.1605 150.822 80.1605C151.695 80.1605 152.124 79.8749 152.124 79.4464C152.124 78.1452 147.808 78.9545 147.808 76.2093C147.808 74.8129 149.045 73.8926 150.934 73.8926C152.727 73.8926 153.964 74.7812 153.964 76.003C153.964 76.3045 153.901 76.5108 153.901 76.5108L152.187 76.6219ZM160.743 79.5258L161.298 81.0491C161.298 81.0491 160.521 81.5727 159.156 81.5727C157.204 81.5727 156.252 80.5254 156.252 78.4467V75.4794H155.094V73.9878H156.3V71.8456L158.188 71.7662V73.9878H160.902V75.4794H158.188V78.3832C158.188 79.4464 158.585 79.9383 159.473 79.9383C160.283 79.9383 160.743 79.5258 160.743 79.5258ZM166.32 73.8926C166.717 73.8926 167.066 73.956 167.384 74.083L166.892 75.9713C166.67 75.8126 166.416 75.7333 166.082 75.7333C165.241 75.7333 164.464 76.4156 164.464 77.7644V81.4775H162.528V73.9878L164.02 73.9243C164.162 74.4479 164.258 75.289 164.258 75.6063H164.305C164.591 74.6542 165.21 73.8926 166.32 73.8926ZM175.569 79.9383L175.649 81.4458C175.649 81.4458 175.22 81.5569 174.696 81.5569C173.729 81.5569 173.189 81.176 173.062 80.3668C172.84 80.7952 172.205 81.5727 170.603 81.5727C168.968 81.5727 168.064 80.7476 168.064 79.5099C168.064 77.7168 169.888 77.1931 172.84 77.1455H172.967V76.7806C172.967 75.9395 172.459 75.3842 171.459 75.3842C170.539 75.3842 170.031 75.7491 170.031 76.368C170.031 76.4949 170.063 76.5901 170.095 76.6695L168.381 76.9551C168.381 76.9551 168.286 76.6536 168.286 76.2569C168.286 74.8446 169.508 73.8926 171.523 73.8926C173.665 73.8926 174.855 75.0033 174.855 76.8282V79.4623C174.855 79.8431 174.982 79.9701 175.299 79.9701C175.395 79.9701 175.49 79.9542 175.569 79.9383ZM171.11 80.097C172.285 80.097 172.967 79.4781 172.967 78.8434V78.2087H172.84C170.809 78.2404 169.952 78.5578 169.952 79.3036C169.952 79.8114 170.364 80.097 171.11 80.097ZM182.025 79.5258L182.581 81.0491C182.581 81.0491 181.803 81.5727 180.439 81.5727C178.487 81.5727 177.535 80.5254 177.535 78.4467V75.4794H176.376V73.9878H177.582V71.8456L179.471 71.7662V73.9878H182.184V75.4794H179.471V78.3832C179.471 79.4464 179.867 79.9383 180.756 79.9383C181.565 79.9383 182.025 79.5258 182.025 79.5258ZM187.51 80.0653C188.589 80.0653 189.177 79.5575 189.494 79.1767L190.478 80.2398C189.907 80.9856 188.812 81.5727 187.304 81.5727C184.813 81.5727 183.305 80.0018 183.305 77.7485C183.305 75.4952 184.797 73.8926 187.098 73.8926C189.288 73.8926 190.541 75.4 190.541 77.4153C190.541 77.8913 190.462 78.1928 190.462 78.1928H185.257C185.432 79.3036 186.193 80.0653 187.51 80.0653ZM187.098 75.4C186.13 75.4 185.432 76.0506 185.257 77.0979H188.716C188.701 76.1141 188.082 75.4 187.098 75.4Z" fill="#EBFDFF"/>
<path d="M37.5593 70.2123C37.8692 69.9025 37.8692 69.4001 37.5593 69.0903C37.2495 68.7804 36.7471 68.7804 36.4373 69.0903L30.8834 74.6442C30.5736 74.954 30.5736 75.4564 30.8834 75.7662L36.4373 81.3201C36.7471 81.6299 37.2495 81.6299 37.5593 81.3201C37.8692 81.0102 37.8692 80.5079 37.5593 80.198L33.3599 75.9986L42.5522 75.9986C42.9903 75.9986 43.3456 75.6434 43.3456 75.2052C43.3456 74.767 42.9903 74.4118 42.5522 74.4118L33.3599 74.4118L37.5593 70.2123Z" fill="#F7F7F7"/>
</g>
<rect x="107.921" y="17.3171" width="90.6211" height="27.4609" rx="13.7305" fill="#060606"/>
</g>
<defs>
<clipPath id="clip0_237_42">
<rect width="306.464" height="638.741" rx="48.7706" fill="white"/>
</clipPath>
<clipPath id="clip1_237_42">
<rect x="10.7094" y="11.2754" width="285.045" height="616.323" rx="38.4453" fill="white"/>
</clipPath>
<clipPath id="clip2_237_42">
<rect width="287.452" height="623.771" fill="white" transform="translate(9.61569 7.48523)"/>
</clipPath>
<clipPath id="clip3_237_42">
<rect width="285.627" height="634.727" fill="white" transform="translate(10.4191 7.48523)"/>
</clipPath>
</defs>
</svg>
