<svg width="670" height="628" viewBox="0 0 670 628" fill="none" xmlns="http://www.w3.org/2000/svg" xmlns:xlink="http://www.w3.org/1999/xlink">
<circle cx="335.44" cy="293.492" r="11.8161" fill="white"/>
<circle cx="335.44" cy="293.492" r="50.7912" stroke="#89CEE1" stroke-width="1.60064"/>
<circle cx="335.44" cy="293.492" r="85.9276" stroke="#89CEE1" stroke-width="1.60064"/>
<circle cx="335.439" cy="293.492" r="133.638" stroke="#89CEE1" stroke-width="1.20048"/>
<circle cx="335.439" cy="293.492" r="178.083" stroke="#89CEE1" stroke-width="0.80032"/>
<circle cx="335.439" cy="293.492" r="219.018" stroke="#89CEE1" stroke-width="0.320128"/>
<circle cx="335.44" cy="293.492" r="254.458" stroke="#89CEE1" stroke-width="0.320128"/>
<circle cx="335.439" cy="293.492" r="289.337" stroke="#89CEE1" stroke-width="0.320128"/>
<circle cx="335.44" cy="293.492" r="333.517" stroke="#89CEE1" stroke-width="0.320128"/>
<path d="M180.457 138.509C202.265 116.702 228.429 99.7421 257.24 88.7386C286.051 77.7351 316.859 72.9357 347.652 74.6541C378.444 76.3725 408.528 84.57 435.935 98.7108C463.343 112.852 487.458 132.617 506.704 156.716L335.439 293.492L180.457 138.509Z" fill="white" fill-opacity="0.4"/>
<path d="M335.487 295.552L332.401 97.2221" stroke="white" stroke-width="1.60064"/>
<path d="M343.143 66.6452V81.4351H340.118L335.345 74.309C334.762 73.4127 334 72.1354 333.642 71.5527L333.507 71.62C333.597 71.9561 333.619 73.099 333.619 74.2866L333.642 81.4351H330.572V66.6452H333.395L338.393 74.1298C339.154 75.2726 339.827 76.4827 340.073 76.9309L340.208 76.8637C340.14 76.4603 340.073 75.3398 340.073 74.1074L340.051 66.6452H343.143Z" fill="white"/>
<path d="M338.101 511.288C338.034 510.504 337.25 509.339 335.524 509.339C334.18 509.339 333.35 509.966 333.35 510.975C333.35 513.664 341.037 512.14 341.037 517.697C341.037 520.005 339.177 521.82 335.412 521.82C332.342 521.82 330.28 520.476 329.451 519.759L331.311 517.473C332.006 518.101 333.575 519.243 335.502 519.243C337.093 519.243 337.877 518.683 337.877 517.764C337.877 514.806 330.168 516.375 330.168 511.154C330.168 508.666 332.275 506.717 335.457 506.717C339.401 506.717 340.611 509.003 340.947 510.594L338.101 511.288Z" fill="white" fill-opacity="0.4"/>
<path d="M561.02 290.317H554.409V293.723H560.146V296.211H554.409V299.863H561.02V302.485H551.227V287.695H561.02V290.317Z" fill="white"/>
<path d="M123.202 287.695H126.429L122.305 302.485H118.697L116.725 294.866C116.434 293.746 116.345 292.872 116.277 292.379H116.21C116.143 292.872 116.008 293.768 115.739 294.866L113.7 302.485H110.07L106.014 287.695H109.263L111.571 297.622L111.952 299.438H112.02C112.109 299.012 112.244 298.317 112.401 297.645L114.843 287.695H117.644L120.064 297.645C120.244 298.34 120.378 298.989 120.468 299.438H120.535L120.916 297.622L123.202 287.695Z" fill="white"/>
<circle cx="334.712" cy="185.555" r="46.7411" fill="#89CEE1"/>
<mask id="mask0_165_541" style="mask-type:alpha" maskUnits="userSpaceOnUse" x="287" y="138" width="95" height="95">
<circle cx="334.712" cy="185.555" r="46.7411" fill="#89CEE1"/>
</mask>
<g mask="url(#mask0_165_541)">
<rect x="275.685" y="130.555" width="125.522" height="125.522" fill="url(#pattern0_165_541)"/>
</g>
<defs>
<pattern id="pattern0_165_541" patternContentUnits="objectBoundingBox" width="1" height="1">
<use xlink:href="#image0_165_541" transform="scale(0.000833333)"/>
</pattern>
</defs>
</svg>
