<svg width="140" height="64" viewBox="0 0 140 64" fill="none" xmlns="http://www.w3.org/2000/svg">
<g clip-path="url(#clip0_163_468)">
<path d="M64.7069 53.2659C64.7069 53.2659 63.6462 53.5418 62.3495 53.5418C59.756 53.5418 58.3799 52.4364 58.2618 50.031C57.2399 52.0827 55.3142 53.5807 52.0916 53.5807C47.2182 53.5807 43.564 49.9903 43.564 43.9945C43.564 38.3931 46.9046 34.486 52.0916 34.486C55.3529 34.486 57.4355 36.1433 58.4186 38.4709H58.498C58.498 37.8357 58.5293 35.8915 58.5293 34.723H62.7811V48.333C62.7811 49.2792 63.056 49.5959 63.8418 49.5959C64.0779 49.5959 64.314 49.557 64.5095 49.5162L64.7069 53.2641V53.2659ZM57.9852 44.5481V44.1537L58.0239 43.4445L57.9852 43.4834C57.9852 41.0762 56.2955 38.5135 53.0342 38.5135C50.2433 38.5135 48.3969 40.6837 48.3969 43.9963C48.3969 47.309 50.2433 49.5588 53.191 49.5588C56.1387 49.5588 57.9852 46.8368 57.9852 44.5481Z" fill="#032556"/>
<path d="M84.2855 55.6342C84.2855 58.7118 81.9669 61.5911 74.3025 61.5911C67.5439 61.5911 64.4781 59.6191 64.4781 56.6601C64.4781 54.8065 65.6569 53.5437 67.6214 52.8734C66.3633 52.1642 65.5775 51.0198 65.5775 49.481C65.5775 47.746 66.7562 46.6017 68.1711 46.1276C66.8356 44.9055 66.0885 43.2871 66.0885 41.3151C66.0885 37.2524 69.3498 34.5286 74.2232 34.5286C76.2264 34.5286 77.9567 34.9619 79.2922 35.7507C80.5889 35.0804 81.0999 31.9603 81.0999 29.8697L84.7946 30.8159C85.1728 34.199 82.5553 36.9747 81.0612 37.2895C81.965 38.3542 82.4372 39.7356 82.4372 41.3132C82.4372 45.3758 79.176 48.1386 74.2619 48.1386C73.0039 48.1386 71.8639 47.9423 70.8826 47.6256C69.94 47.8219 69.4291 48.2182 69.4291 48.8478C69.4291 49.9125 70.451 50.2291 72.7309 50.2291H76.8186C81.2991 50.2291 84.2855 52.0049 84.2855 55.6342ZM79.8437 55.8305C79.8437 54.3306 78.665 53.9362 76.267 53.9362H72.5723C69.7039 53.9362 68.8001 54.7639 68.8001 55.9083C68.8001 57.4082 70.3329 58.1174 74.3025 58.1174C78.2721 58.1174 79.8437 57.3674 79.8437 55.8287V55.8305ZM74.225 44.5481C76.4644 44.587 77.9198 43.2853 77.9585 41.3521C77.9585 39.4189 76.505 38.1172 74.3044 38.0783C72.1038 38.0783 70.6502 39.38 70.6502 41.3132C70.6115 43.2464 72.0263 44.5481 74.2269 44.5481H74.225Z" fill="#032556"/>
<path d="M99.0996 52.2808C99.0996 52.2808 97.1738 53.5826 93.7945 53.5826C88.9598 53.5826 86.6024 50.9791 86.6024 45.811V38.4338L86.7204 34.7249V29.2013H91.3965V34.7249H98.1164V38.4338H91.3965V45.6536C91.3965 48.296 92.3797 49.5199 94.5803 49.5199C96.5835 49.5199 97.7235 48.4941 97.7235 48.4941L99.0977 52.2808H99.0996Z" fill="#032556"/>
<path d="M119.606 53.2659C119.606 53.2659 118.545 53.5418 117.249 53.5418C114.655 53.5418 113.279 52.4364 113.161 50.031C112.139 52.0827 110.213 53.5807 106.991 53.5807C102.117 53.5807 98.4631 49.9903 98.4631 43.9945C98.4631 38.3931 101.804 34.486 106.991 34.486C110.252 34.486 112.336 36.1433 113.318 38.4709H113.395C113.395 37.8672 113.414 35.8933 113.414 34.723H117.678V48.333C117.678 49.2792 117.953 49.5959 118.739 49.5959C118.975 49.5959 119.211 49.557 119.407 49.5162L119.604 53.2641L119.606 53.2659ZM112.886 44.5481V44.1537L112.925 43.4445L112.886 43.4834C112.886 41.0762 111.196 38.5135 107.933 38.5135C105.144 38.5135 103.296 40.6837 103.296 43.9963C103.296 47.309 105.142 49.5588 108.09 49.5588C111.038 49.5588 112.884 46.8368 112.884 44.5481H112.886Z" fill="#032556"/>
<path d="M139.185 55.6342C139.185 58.7118 136.866 61.5911 129.204 61.5911C122.443 61.5911 119.379 59.6191 119.379 56.6601C119.379 54.8065 120.558 53.5437 122.522 52.8734C121.264 52.1642 120.479 51.0198 120.479 49.481C120.479 47.746 121.657 46.6017 123.072 46.1276C121.735 44.9055 120.989 43.2871 120.989 41.3151C120.989 37.2524 124.251 34.5286 129.124 34.5286C131.127 34.5286 132.858 34.9619 134.193 35.7507C135.49 35.0804 136.307 32.9102 136.307 30.8196L140.002 31.7659C140.002 35.4693 137.456 36.9728 135.964 37.2895C136.868 38.3542 137.338 39.7356 137.338 41.3132C137.338 45.3758 134.077 48.1386 129.163 48.1386C127.905 48.1386 126.765 47.9423 125.784 47.6256C124.841 47.8219 124.33 48.2182 124.33 48.8478C124.33 49.9125 125.352 50.2291 127.632 50.2291H131.72C136.2 50.2291 139.187 52.0049 139.187 55.6342H139.185ZM134.743 55.8305C134.743 54.3306 133.564 53.9362 131.166 53.9362H127.471C124.603 53.9362 123.699 54.7639 123.699 55.9083C123.699 57.4082 125.232 58.1174 129.202 58.1174C133.171 58.1174 134.743 57.3674 134.743 55.8287V55.8305ZM129.124 44.5481C131.365 44.587 132.819 43.2853 132.858 41.3521C132.858 39.4189 131.404 38.1172 129.204 38.0783C127.003 38.0783 125.548 39.38 125.548 41.3132C125.509 43.2464 126.924 44.5481 129.124 44.5481Z" fill="#032556"/>
<path d="M103.327 4.36075C103.167 4.36075 103.008 4.36445 102.85 4.37371H103.805C103.647 4.36445 103.488 4.36075 103.327 4.36075Z" fill="#05C8FF"/>
<path d="M41.5682 47.0794C41.5682 51.1643 38.9304 54.6436 35.2744 55.8879C34.9682 55.9935 34.6565 56.0805 34.3374 56.1527C33.6825 56.3009 33.0019 56.3786 32.3046 56.3786C31.6073 56.3786 30.9248 56.3009 30.27 56.1527H11.894V22.3037H32.1497C33.2619 22.3667 34.3189 22.6481 35.2744 23.1073C38.0837 24.4591 40.0298 27.3422 40.0298 30.6734C40.0298 34.0046 38.0837 36.8877 35.2744 38.2394C35.2615 38.245 35.2504 38.2524 35.2375 38.2561C35.2504 38.2598 35.2615 38.2635 35.2744 38.269C38.9304 39.5134 41.5682 42.9927 41.5682 47.0794Z" fill="#05C8FF"/>
<path d="M32.7693 21.1112H31.301V17.7578C31.301 16.893 30.6001 16.1912 29.7405 16.1912H15.8414C14.98 16.1912 14.2809 16.8949 14.2809 17.7578V21.1112H12.8126V17.7578C12.8126 16.082 14.172 14.7173 15.8414 14.7173H29.7405C31.4099 14.7173 32.7693 16.082 32.7693 17.7578V21.1112Z" fill="#05C8FF"/>
<path d="M29.1576 17.0578H16.5589C15.6754 17.0578 14.9597 16.3394 14.9597 15.4524C14.9597 14.5654 15.6754 13.847 16.5589 13.847H29.1576C30.0411 13.847 30.7569 14.5654 30.7569 15.4524C30.7569 16.3394 30.0411 17.0578 29.1576 17.0578Z" fill="#05C8FF"/>
<path d="M18.3704 60.4662C18.3704 58.9256 17.1262 57.6767 15.5915 57.6767C14.0567 57.6767 12.8126 58.9256 12.8126 60.4662C12.8126 62.0069 14.0567 63.2558 15.5915 63.2558C17.1262 63.2558 18.3704 62.0069 18.3704 60.4662Z" fill="#05C8FF"/>
<path d="M32.133 60.4662C32.133 58.9256 30.8888 57.6767 29.3541 57.6767C27.8193 57.6767 26.5752 58.9256 26.5752 60.4662C26.5752 62.0069 27.8193 63.2558 29.3541 63.2558C30.8888 63.2558 32.133 62.0069 32.133 60.4662Z" fill="#05C8FF"/>
<path d="M10.0106 14.8524C9.92946 14.8524 9.84645 14.845 9.76529 14.8284L9.70257 14.8154C9.03298 14.6802 8.59581 14.021 8.72493 13.347C8.78396 13.0452 8.86697 12.7489 8.9758 12.4656C9.33365 11.5027 9.95529 10.6602 10.7724 10.0362C11.5896 9.41031 12.5617 9.03071 13.5836 8.93627C13.7515 8.91961 13.923 8.9122 14.0946 8.9122C14.2274 8.9122 14.362 8.91776 14.4949 8.92701C15.1774 8.97701 15.6939 9.57511 15.6496 10.2584L15.644 10.3232C15.5998 10.9842 15.0556 11.4842 14.3786 11.4842C14.3491 11.4842 14.3178 11.4842 14.2883 11.4805C14.2219 11.4768 14.1555 11.4731 14.089 11.4731C13.9249 11.4731 13.7607 11.4879 13.6021 11.5157C13.1391 11.5935 12.7001 11.786 12.3256 12.073C11.9511 12.3601 11.6505 12.736 11.455 13.16C11.3572 13.3711 11.2834 13.5933 11.2391 13.8192C11.1192 14.4173 10.6046 14.8524 10.0125 14.8524H10.0106Z" fill="#05C8FF"/>
<path d="M15.1682 10.2251L15.1645 10.288C15.1349 10.7232 14.7531 11.0287 14.3196 10.9991C14.0522 10.9806 13.7829 10.9935 13.5172 11.0398C12.9915 11.1269 12.4806 11.3435 12.0305 11.6879C11.5804 12.0323 11.2391 12.4712 11.0159 12.9563C10.9016 13.2008 10.8167 13.4581 10.7651 13.7229C10.6802 14.1507 10.2855 14.4414 9.85938 14.3544L9.79666 14.3414C9.38347 14.2581 9.116 13.8526 9.19532 13.4378C9.24881 13.1656 9.32444 12.8952 9.42221 12.6341C9.73948 11.7824 10.2892 11.0084 11.0602 10.4158C11.8313 9.82512 12.7204 9.49552 13.6242 9.41219C13.9009 9.38627 14.1794 9.38256 14.4561 9.40293C14.8767 9.43441 15.1958 9.7992 15.1663 10.2232L15.1682 10.2251Z" fill="#05C8FF"/>
<path d="M1.30983 13.0896C1.22682 13.0896 1.14566 13.0804 1.06449 13.0656L0.999933 13.0526C0.328496 12.9174 -0.108675 12.2582 0.0241363 11.5824C0.0794744 11.3009 0.144036 11.0176 0.21782 10.7398C1.03129 7.60862 2.81871 4.9144 5.38272 2.94975C7.89876 1.02029 10.9036 0 14.0708 0H14.2331C14.5117 0.00370339 14.8013 0.0148136 15.0909 0.0351822C15.7734 0.0833264 16.2917 0.681424 16.2456 1.36655L16.2419 1.42951C16.1976 2.08316 15.6535 2.59423 15.0042 2.59423C14.9747 2.59423 14.9451 2.59423 14.9156 2.59052C14.65 2.57201 14.3825 2.56275 14.1188 2.56275H14.0708C11.4718 2.56275 9.00368 3.40157 6.93403 4.98662C4.85331 6.58093 3.39239 8.76593 2.70988 11.3046C2.64163 11.5564 2.58076 11.8194 2.52911 12.0842C2.41474 12.6656 1.90194 13.0896 1.31167 13.0896H1.30983Z" fill="#05C8FF"/>
<path d="M15.7658 1.33509L15.7621 1.3999C15.7344 1.82209 15.3692 2.14058 14.9486 2.11095C14.6719 2.09058 14.3952 2.08132 14.1185 2.08132C11.5066 2.07206 8.87249 2.89422 6.64236 4.60519C4.41039 6.31615 2.92733 8.64929 2.24482 11.1806C2.17288 11.4491 2.11017 11.7194 2.05667 11.9916C1.97551 12.4082 1.57339 12.6767 1.15835 12.5934L1.09563 12.5804C0.682443 12.4971 0.413131 12.0916 0.494293 11.6768C0.547787 11.4028 0.610504 11.1324 0.680599 10.8621C1.43504 7.96231 3.12101 5.28846 5.6721 3.33122C8.22503 1.37583 11.241 0.448127 14.2255 0.481457C14.5022 0.483309 14.7789 0.494419 15.0556 0.514788C15.4762 0.544415 15.7934 0.911051 15.7658 1.33509Z" fill="#05C8FF"/>
<path d="M5.65923 13.9711C5.57622 13.9711 5.49322 13.9618 5.41205 13.947L5.34749 13.934C4.6779 13.7988 4.24073 13.147 4.3717 12.4804C4.42888 12.1897 4.49897 11.8972 4.58198 11.612C5.1741 9.56031 6.38232 7.79009 8.07566 6.49205C9.76901 5.19401 11.7889 4.49036 13.9175 4.45703C13.9766 4.45703 14.0374 4.45703 14.0983 4.45703C14.3252 4.45703 14.5576 4.46444 14.7882 4.4811C15.4725 4.52925 15.9909 5.12735 15.9448 5.81433L15.9411 5.87543C15.8968 6.52908 15.3453 7.04015 14.6867 7.04015C14.6572 7.04015 14.6259 7.04015 14.5945 7.03645C14.4193 7.02348 14.2422 7.01793 14.0669 7.01793C13.9895 7.01793 13.9102 7.01793 13.8327 7.02163C12.3017 7.07348 10.8463 7.59566 9.62513 8.53077C8.40585 9.46587 7.52044 10.738 7.06851 12.2101C6.99472 12.4508 6.93201 12.6989 6.88036 12.9508C6.7623 13.5433 6.24766 13.9729 5.65739 13.9729L5.65923 13.9711Z" fill="#05C8FF"/>
<path d="M15.467 5.78099L15.4633 5.8421C15.4338 6.27354 15.0575 6.58463 14.6296 6.555C14.3603 6.53649 14.0891 6.53093 13.8179 6.53834C12.2463 6.59204 10.6766 7.11792 9.33555 8.14746C7.99268 9.17701 7.07591 10.5565 6.61107 12.0675C6.53175 12.3267 6.46535 12.5897 6.41185 12.8563C6.327 13.2804 5.92857 13.5618 5.508 13.4766L5.44528 13.4637C5.03762 13.3804 4.76278 12.9841 4.84394 12.5749C4.89928 12.2971 4.96568 12.0212 5.045 11.749C5.58732 9.87324 6.70883 8.14931 8.36898 6.8772C10.0291 5.60508 11.9807 4.9718 13.9268 4.94032C14.2035 4.93477 14.482 4.94217 14.7568 4.96254C15.1774 4.99217 15.4965 5.36066 15.4689 5.78285L15.467 5.78099Z" fill="#05C8FF"/>
</g>
<defs>
<clipPath id="clip0_163_468">
<rect width="140" height="63.2558" fill="white"/>
</clipPath>
</defs>
</svg>
