<svg width="299" height="433" viewBox="0 0 299 433" fill="none" xmlns="http://www.w3.org/2000/svg">
<rect width="298.775" height="630.635" rx="45.0359" fill="white"/>
<g clip-path="url(#clip0_176_8610)">
<rect x="6.86481" y="7.15625" width="285.045" height="616.323" rx="38.4453" fill="#1C1C1C"/>
<g clip-path="url(#clip1_176_8610)">
<rect x="6.0451" y="-5.14294" width="287.452" height="641.018" fill="#EFEFEF"/>
</g>
<g clip-path="url(#clip2_176_8610)">
<rect width="285.627" height="634.727" transform="translate(6.57455 3.36609)" fill="#F7FEFF"/>
<rect x="25.4528" y="161.254" width="247.543" height="34.91" rx="12.6945" fill="#CFE7EB"/>
<path d="M34.3302 150.452H32.7434L28.3003 143.635V150.452H26.777V141.452H28.7192L32.8069 147.837V141.452H34.3302V150.452ZM38.0157 148.802C38.3542 149.149 38.7647 149.322 39.2471 149.322C39.7295 149.322 40.1357 149.149 40.4657 148.802C40.8043 148.455 40.9735 147.972 40.9735 147.355C40.9735 146.745 40.8043 146.271 40.4657 145.933C40.1357 145.586 39.7295 145.412 39.2471 145.412C38.7647 145.412 38.3542 145.586 38.0157 145.933C37.6856 146.271 37.5206 146.745 37.5206 147.355C37.5206 147.964 37.6856 148.446 38.0157 148.802ZM39.2471 144.079C40.178 144.079 40.9439 144.388 41.5448 145.006C42.1541 145.624 42.4588 146.407 42.4588 147.355C42.4588 148.303 42.1541 149.09 41.5448 149.716C40.9439 150.334 40.178 150.643 39.2471 150.643C38.3246 150.643 37.5587 150.334 36.9493 149.716C36.3485 149.09 36.048 148.303 36.048 147.355C36.048 146.407 36.3485 145.624 36.9493 145.006C37.5587 144.388 38.3246 144.079 39.2471 144.079ZM45.5401 150.452H44.0802V144.27H45.4893V145.057C45.6586 144.752 45.9124 144.515 46.251 144.346C46.598 144.177 46.9534 144.092 47.3173 144.092C47.732 144.092 48.1044 144.185 48.4344 144.371C48.7645 144.558 49.0099 144.828 49.1707 145.184C49.6023 144.456 50.2709 144.092 51.1765 144.092C51.7858 144.092 52.302 144.291 52.7252 144.689C53.1483 145.087 53.3599 145.671 53.3599 146.441V150.452H51.9381V146.682C51.9381 146.301 51.8366 145.996 51.6335 145.768C51.4388 145.531 51.1426 145.412 50.7448 145.412C50.364 145.412 50.0551 145.544 49.8181 145.806C49.5812 146.068 49.4627 146.394 49.4627 146.783V150.452H48.0155V146.682C48.0155 146.301 47.914 145.996 47.7108 145.768C47.5162 145.531 47.22 145.412 46.8222 145.412C46.4329 145.412 46.1198 145.544 45.8828 145.806C45.6543 146.06 45.5401 146.386 45.5401 146.783V150.452ZM56.796 150.452H55.3615V141.261H56.8087V145.032C56.961 144.769 57.2107 144.549 57.5576 144.371C57.9046 144.194 58.3024 144.105 58.7509 144.105C59.648 144.105 60.3462 144.41 60.8455 145.019C61.3533 145.62 61.6072 146.39 61.6072 147.329C61.6072 148.286 61.3406 149.073 60.8074 149.69C60.2827 150.3 59.5803 150.604 58.7001 150.604C57.82 150.604 57.1853 150.279 56.796 149.627V150.452ZM59.6522 148.776C59.9654 148.421 60.1219 147.943 60.1219 147.342C60.1219 146.741 59.9696 146.271 59.6649 145.933C59.3603 145.586 58.9583 145.412 58.4589 145.412C57.9766 145.412 57.5788 145.586 57.2657 145.933C56.9525 146.271 56.796 146.741 56.796 147.342C56.796 147.934 56.9525 148.408 57.2657 148.764C57.5788 149.119 57.9766 149.297 58.4589 149.297C58.9498 149.297 59.3476 149.123 59.6522 148.776ZM66.8391 144.232V145.73C66.6699 145.704 66.5091 145.692 66.3567 145.692C65.2481 145.692 64.6938 146.297 64.6938 147.507V150.452H63.2212V144.27H64.6557V145.26C64.7995 144.93 65.0323 144.672 65.3539 144.486C65.6755 144.291 66.0394 144.194 66.4456 144.194C66.581 144.194 66.7122 144.206 66.8391 144.232ZM69.233 146.682H72.267C72.2501 146.293 72.1105 145.967 71.8481 145.704C71.5942 145.442 71.2261 145.311 70.7437 145.311C70.3036 145.311 69.9482 145.451 69.6773 145.73C69.4065 146.001 69.2584 146.318 69.233 146.682ZM72.4321 148.294L73.6761 148.688C73.4984 149.255 73.1641 149.724 72.6733 150.097C72.1909 150.461 71.5942 150.643 70.8833 150.643C70.0032 150.643 69.2542 150.342 68.6364 149.741C68.0271 149.14 67.7224 148.336 67.7224 147.329C67.7224 146.381 68.0186 145.603 68.611 144.993C69.2119 144.384 69.9185 144.079 70.731 144.079C71.6789 144.079 72.4194 144.371 72.9525 144.955C73.4857 145.531 73.7523 146.309 73.7523 147.291C73.7523 147.554 73.7396 147.71 73.7142 147.761H69.195C69.2119 148.226 69.3811 148.611 69.7027 148.916C70.0328 149.221 70.4263 149.373 70.8833 149.373C71.6789 149.373 72.1951 149.013 72.4321 148.294Z" fill="#032556"/>
<path d="M33.0296 215.512L32.1791 213.252H28.3707L27.5329 215.512H25.9206L29.4243 206.511H31.1889L34.6926 215.512H33.0296ZM30.2749 208.161L28.9039 211.843H31.6459L30.2749 208.161ZM37.3918 217.924H35.932V209.329H37.3538V210.167C37.5146 209.888 37.7684 209.655 38.1154 209.469C38.4624 209.283 38.8644 209.19 39.3214 209.19C40.21 209.19 40.9082 209.494 41.416 210.104C41.9238 210.705 42.1777 211.475 42.1777 212.414C42.1777 213.354 41.9111 214.132 41.3779 214.75C40.8448 215.359 40.1423 215.664 39.2706 215.664C38.8475 215.664 38.4709 215.584 38.1408 215.423C37.8108 215.262 37.5611 215.059 37.3918 214.813V217.924ZM40.7051 212.414C40.7051 211.839 40.5528 211.377 40.2481 211.03C39.9434 210.675 39.5415 210.497 39.0421 210.497C38.5513 210.497 38.1493 210.675 37.8362 211.03C37.5315 211.377 37.3792 211.839 37.3792 212.414C37.3792 212.998 37.5315 213.468 37.8362 213.823C38.1493 214.179 38.5513 214.356 39.0421 214.356C39.533 214.356 39.9308 214.179 40.2354 213.823C40.5486 213.468 40.7051 212.998 40.7051 212.414ZM44.8199 211.741H47.8539C47.837 211.352 47.6974 211.026 47.435 210.764C47.1811 210.501 46.813 210.37 46.3306 210.37C45.8905 210.37 45.5351 210.51 45.2642 210.789C44.9934 211.06 44.8453 211.377 44.8199 211.741ZM48.019 213.354L49.263 213.747C49.0853 214.314 48.751 214.784 48.2602 215.156C47.7778 215.52 47.1811 215.702 46.4702 215.702C45.5901 215.702 44.8411 215.402 44.2233 214.801C43.614 214.2 43.3093 213.396 43.3093 212.389C43.3093 211.441 43.6055 210.662 44.1979 210.053C44.7988 209.444 45.5054 209.139 46.3179 209.139C47.2657 209.139 48.0063 209.431 48.5394 210.015C49.0726 210.59 49.3392 211.369 49.3392 212.351C49.3392 212.613 49.3265 212.77 49.3011 212.82H44.7819C44.7988 213.286 44.968 213.671 45.2896 213.976C45.6197 214.28 46.0132 214.433 46.4702 214.433C47.2657 214.433 47.782 214.073 48.019 213.354ZM52.4173 215.512H50.9447V206.321H52.4173V215.512ZM55.9877 215.512H54.5151V206.321H55.9877V215.512ZM59.5453 215.512H58.0854V209.329H59.5453V215.512ZM58.1362 207.831C57.95 207.645 57.8569 207.421 57.8569 207.159C57.8569 206.896 57.95 206.672 58.1362 206.486C58.3224 206.291 58.5467 206.194 58.809 206.194C59.0798 206.194 59.3083 206.287 59.4945 206.473C59.6807 206.659 59.7738 206.888 59.7738 207.159C59.7738 207.421 59.6807 207.645 59.4945 207.831C59.3083 208.018 59.0798 208.111 58.809 208.111C58.5467 208.111 58.3224 208.018 58.1362 207.831ZM62.6335 212.401C62.6335 212.994 62.7859 213.472 63.0905 213.836C63.3952 214.191 63.7972 214.369 64.2965 214.369C64.7789 214.369 65.1724 214.187 65.4771 213.823C65.7818 213.459 65.9341 212.981 65.9341 212.389C65.9341 211.805 65.786 211.339 65.4898 210.992C65.1936 210.645 64.8001 210.472 64.3092 210.472C63.8184 210.472 63.4164 210.65 63.1032 211.005C62.7901 211.352 62.6335 211.817 62.6335 212.401ZM67.3559 206.321V214.382C67.3559 214.796 67.3771 215.173 67.4194 215.512H66.0103C65.968 215.275 65.9468 215.008 65.9468 214.712C65.7945 214.991 65.5575 215.22 65.2359 215.397C64.9143 215.575 64.5462 215.664 64.1315 215.664C63.2513 215.664 62.5362 215.355 61.9861 214.737C61.436 214.119 61.161 213.341 61.161 212.401C61.161 211.496 61.436 210.73 61.9861 210.104C62.5447 209.477 63.2513 209.164 64.1061 209.164C64.597 209.164 64.9905 209.253 65.2867 209.431C65.5914 209.609 65.8029 209.816 65.9214 210.053V206.321H67.3559ZM70.9635 213.861C71.3021 214.208 71.7125 214.382 72.1949 214.382C72.6773 214.382 73.0835 214.208 73.4136 213.861C73.7521 213.514 73.9214 213.032 73.9214 212.414C73.9214 211.805 73.7521 211.331 73.4136 210.992C73.0835 210.645 72.6773 210.472 72.1949 210.472C71.7125 210.472 71.3021 210.645 70.9635 210.992C70.6335 211.331 70.4684 211.805 70.4684 212.414C70.4684 213.023 70.6335 213.506 70.9635 213.861ZM72.1949 209.139C73.1258 209.139 73.8917 209.448 74.4926 210.066C75.102 210.683 75.4066 211.466 75.4066 212.414C75.4066 213.362 75.102 214.149 74.4926 214.775C73.8917 215.393 73.1258 215.702 72.1949 215.702C71.2724 215.702 70.5065 215.393 69.8972 214.775C69.2963 214.149 68.9959 213.362 68.9959 212.414C68.9959 211.466 69.2963 210.683 69.8972 210.066C70.5065 209.448 71.2724 209.139 72.1949 209.139Z" fill="#032556"/>
<rect x="25.7937" y="226.859" width="247.543" height="34.91" rx="12.6945" fill="#CFE7EB"/>
<path d="M30.8715 280.762C29.6105 280.762 28.5357 280.334 27.6471 279.479C26.7669 278.625 26.3269 277.491 26.3269 276.077C26.3269 274.672 26.7754 273.538 27.6725 272.675C28.5696 271.812 29.6317 271.38 30.8588 271.38C31.9421 271.38 32.8307 271.655 33.5247 272.205C34.2271 272.756 34.6883 273.454 34.9084 274.3L33.4739 274.782C33.33 274.199 33.038 273.725 32.598 273.361C32.1579 272.997 31.5782 272.815 30.8588 272.815C30.0548 272.815 29.3566 273.103 28.7642 273.678C28.1803 274.245 27.8883 275.045 27.8883 276.077C27.8883 277.084 28.1803 277.876 28.7642 278.451C29.3482 279.018 30.0506 279.302 30.8715 279.302C31.5739 279.302 32.1537 279.111 32.6107 278.73C33.0677 278.35 33.3808 277.88 33.5501 277.321L34.9465 277.778C34.7264 278.616 34.261 279.323 33.5501 279.898C32.8476 280.474 31.9548 280.762 30.8715 280.762ZM37.8263 278.921C38.1649 279.268 38.5753 279.441 39.0577 279.441C39.5401 279.441 39.9463 279.268 40.2764 278.921C40.6149 278.574 40.7842 278.092 40.7842 277.474C40.7842 276.864 40.6149 276.39 40.2764 276.052C39.9463 275.705 39.5401 275.531 39.0577 275.531C38.5753 275.531 38.1649 275.705 37.8263 276.052C37.4963 276.39 37.3312 276.864 37.3312 277.474C37.3312 278.083 37.4963 278.565 37.8263 278.921ZM39.0577 274.199C39.9886 274.199 40.7545 274.507 41.3554 275.125C41.9648 275.743 42.2694 276.526 42.2694 277.474C42.2694 278.422 41.9648 279.209 41.3554 279.835C40.7545 280.453 39.9886 280.762 39.0577 280.762C38.1352 280.762 37.3693 280.453 36.76 279.835C36.1591 279.209 35.8587 278.422 35.8587 277.474C35.8587 276.526 36.1591 275.743 36.76 275.125C37.3693 274.507 38.1352 274.199 39.0577 274.199ZM47.5088 274.351V275.849C47.3395 275.823 47.1787 275.811 47.0264 275.811C45.9177 275.811 45.3634 276.416 45.3634 277.626V280.571H43.8909V274.389H45.3253V275.379C45.4692 275.049 45.7019 274.791 46.0235 274.605C46.3451 274.41 46.709 274.313 47.1153 274.313C47.2507 274.313 47.3819 274.325 47.5088 274.351ZM52.5544 274.351V275.849C52.3851 275.823 52.2243 275.811 52.072 275.811C50.9633 275.811 50.409 276.416 50.409 277.626V280.571H48.9364V274.389H50.3709V275.379C50.5148 275.049 50.7475 274.791 51.0691 274.605C51.3907 274.41 51.7546 274.313 52.1608 274.313C52.2963 274.313 52.4274 274.325 52.5544 274.351ZM54.9483 276.801H57.9823C57.9654 276.412 57.8257 276.086 57.5634 275.823C57.3095 275.561 56.9413 275.43 56.4589 275.43C56.0189 275.43 55.6634 275.57 55.3926 275.849C55.1218 276.12 54.9737 276.437 54.9483 276.801ZM58.1473 278.413L59.3914 278.807C59.2137 279.374 58.8794 279.843 58.3885 280.216C57.9061 280.58 57.3095 280.762 56.5986 280.762C55.7184 280.762 54.9694 280.461 54.3516 279.86C53.7423 279.259 53.4376 278.455 53.4376 277.448C53.4376 276.5 53.7338 275.722 54.3263 275.113C54.9271 274.503 55.6338 274.199 56.4462 274.199C57.3941 274.199 58.1346 274.49 58.6678 275.074C59.201 275.65 59.4675 276.429 59.4675 277.41C59.4675 277.673 59.4548 277.829 59.4295 277.88H54.9102C54.9271 278.345 55.0964 278.73 55.418 279.035C55.748 279.34 56.1416 279.492 56.5986 279.492C57.3941 279.492 57.9103 279.132 58.1473 278.413ZM62.5584 278.921C62.8969 279.268 63.3073 279.441 63.7897 279.441C64.2721 279.441 64.6784 279.268 65.0084 278.921C65.3469 278.574 65.5162 278.092 65.5162 277.474C65.5162 276.864 65.3469 276.39 65.0084 276.052C64.6784 275.705 64.2721 275.531 63.7897 275.531C63.3073 275.531 62.8969 275.705 62.5584 276.052C62.2283 276.39 62.0633 276.864 62.0633 277.474C62.0633 278.083 62.2283 278.565 62.5584 278.921ZM63.7897 274.199C64.7207 274.199 65.4866 274.507 66.0874 275.125C66.6968 275.743 67.0015 276.526 67.0015 277.474C67.0015 278.422 66.6968 279.209 66.0874 279.835C65.4866 280.453 64.7207 280.762 63.7897 280.762C62.8673 280.762 62.1014 280.453 61.492 279.835C60.8911 279.209 60.5907 278.422 60.5907 277.474C60.5907 276.526 60.8911 275.743 61.492 275.125C62.1014 274.507 62.8673 274.199 63.7897 274.199ZM72.9983 276.801H76.0323C76.0154 276.412 75.8758 276.086 75.6134 275.823C75.3595 275.561 74.9914 275.43 74.509 275.43C74.0689 275.43 73.7135 275.57 73.4426 275.849C73.1718 276.12 73.0237 276.437 72.9983 276.801ZM76.1974 278.413L77.4414 278.807C77.2637 279.374 76.9294 279.843 76.4385 280.216C75.9562 280.58 75.3595 280.762 74.6486 280.762C73.7685 280.762 73.0195 280.461 72.4017 279.86C71.7923 279.259 71.4877 278.455 71.4877 277.448C71.4877 276.5 71.7839 275.722 72.3763 275.113C72.9772 274.503 73.6838 274.199 74.4963 274.199C75.4441 274.199 76.1847 274.49 76.7178 275.074C77.251 275.65 77.5176 276.429 77.5176 277.41C77.5176 277.673 77.5049 277.829 77.4795 277.88H72.9602C72.9772 278.345 73.1464 278.73 73.468 279.035C73.7981 279.34 74.1916 279.492 74.6486 279.492C75.4441 279.492 75.9604 279.132 76.1974 278.413ZM80.5957 280.571H79.1231V271.38H80.5957V280.571ZM83.7217 276.801H86.7557C86.7388 276.412 86.5992 276.086 86.3368 275.823C86.0829 275.561 85.7148 275.43 85.2324 275.43C84.7923 275.43 84.4369 275.57 84.1661 275.849C83.8952 276.12 83.7471 276.437 83.7217 276.801ZM86.9208 278.413L88.1648 278.807C87.9871 279.374 87.6528 279.843 87.162 280.216C86.6796 280.58 86.0829 280.762 85.372 280.762C84.4919 280.762 83.7429 280.461 83.1251 279.86C82.5158 279.259 82.2111 278.455 82.2111 277.448C82.2111 276.5 82.5073 275.722 83.0997 275.113C83.7006 274.503 84.4072 274.199 85.2197 274.199C86.1676 274.199 86.9081 274.49 87.4412 275.074C87.9744 275.65 88.241 276.429 88.241 277.41C88.241 277.673 88.2283 277.829 88.2029 277.88H83.6837C83.7006 278.345 83.8698 278.73 84.1914 279.035C84.5215 279.34 84.915 279.492 85.372 279.492C86.1676 279.492 86.6838 279.132 86.9208 278.413ZM92.5378 275.557C92.0639 275.557 91.6619 275.73 91.3318 276.077C91.0018 276.416 90.8367 276.881 90.8367 277.474C90.8367 278.075 91.0018 278.549 91.3318 278.895C91.6703 279.242 92.0808 279.416 92.5632 279.416C92.9948 279.416 93.3376 279.302 93.5914 279.073C93.8538 278.836 94.0273 278.57 94.1119 278.273L95.4068 278.743C95.2375 279.293 94.9074 279.767 94.4166 280.165C93.9342 280.563 93.3164 280.762 92.5632 280.762C91.6576 280.762 90.896 280.448 90.2782 279.822C89.6688 279.196 89.3642 278.413 89.3642 277.474C89.3642 276.526 89.6646 275.743 90.2655 275.125C90.8748 274.507 91.628 274.199 92.5251 274.199C93.2952 274.199 93.9215 274.397 94.4039 274.795C94.8948 275.193 95.2121 275.671 95.356 276.23L94.0358 276.712C93.9511 276.39 93.7861 276.12 93.5407 275.9C93.3037 275.671 92.9694 275.557 92.5378 275.557ZM98.7789 272.497V274.389H100.061V275.696H98.7789V278.565C98.7789 278.836 98.8424 279.035 98.9694 279.162C99.0963 279.281 99.2952 279.34 99.566 279.34C99.7353 279.34 99.9045 279.323 100.074 279.289V280.508C99.8538 280.601 99.5533 280.647 99.1725 280.647C98.597 280.647 98.1442 280.487 97.8142 280.165C97.4841 279.835 97.3191 279.382 97.3191 278.807V275.696H96.1766V274.389H96.4939C96.8071 274.389 97.044 274.3 97.2048 274.122C97.3656 273.945 97.446 273.712 97.446 273.424V272.497H98.7789ZM105.279 274.351V275.849C105.11 275.823 104.949 275.811 104.796 275.811C103.688 275.811 103.133 276.416 103.133 277.626V280.571H101.661V274.389H103.095V275.379C103.239 275.049 103.472 274.791 103.794 274.605C104.115 274.41 104.479 274.313 104.885 274.313C105.021 274.313 105.152 274.325 105.279 274.351ZM111.507 271.736L109.844 273.615H108.638L109.767 271.736H111.507ZM108.13 278.921C108.468 279.268 108.879 279.441 109.361 279.441C109.844 279.441 110.25 279.268 110.58 278.921C110.918 278.574 111.088 278.092 111.088 277.474C111.088 276.864 110.918 276.39 110.58 276.052C110.25 275.705 109.844 275.531 109.361 275.531C108.879 275.531 108.468 275.705 108.13 276.052C107.8 276.39 107.635 276.864 107.635 277.474C107.635 278.083 107.8 278.565 108.13 278.921ZM109.361 274.199C110.292 274.199 111.058 274.507 111.659 275.125C112.268 275.743 112.573 276.526 112.573 277.474C112.573 278.422 112.268 279.209 111.659 279.835C111.058 280.453 110.292 280.762 109.361 280.762C108.439 280.762 107.673 280.453 107.063 279.835C106.463 279.209 106.162 278.422 106.162 277.474C106.162 276.526 106.463 275.743 107.063 275.125C107.673 274.507 108.439 274.199 109.361 274.199ZM115.667 277.004V280.571H114.194V274.389H115.629V275.214C115.823 274.876 116.082 274.626 116.403 274.465C116.733 274.296 117.084 274.211 117.457 274.211C118.185 274.211 118.739 274.44 119.12 274.897C119.501 275.354 119.691 275.942 119.691 276.661V280.571H118.218V276.915C118.218 276.5 118.117 276.17 117.914 275.925C117.711 275.671 117.389 275.544 116.949 275.544C116.543 275.544 116.225 275.684 115.997 275.963C115.777 276.234 115.667 276.581 115.667 277.004ZM123.142 280.571H121.682V274.389H123.142V280.571ZM121.733 272.891C121.547 272.705 121.454 272.481 121.454 272.218C121.454 271.956 121.547 271.732 121.733 271.545C121.919 271.351 122.143 271.253 122.406 271.253C122.676 271.253 122.905 271.346 123.091 271.533C123.277 271.719 123.37 271.947 123.37 272.218C123.37 272.481 123.277 272.705 123.091 272.891C122.905 273.077 122.676 273.17 122.406 273.17C122.143 273.17 121.919 273.077 121.733 272.891ZM127.931 275.557C127.457 275.557 127.055 275.73 126.725 276.077C126.395 276.416 126.23 276.881 126.23 277.474C126.23 278.075 126.395 278.549 126.725 278.895C127.064 279.242 127.474 279.416 127.957 279.416C128.388 279.416 128.731 279.302 128.985 279.073C129.247 278.836 129.421 278.57 129.505 278.273L130.8 278.743C130.631 279.293 130.301 279.767 129.81 280.165C129.328 280.563 128.71 280.762 127.957 280.762C127.051 280.762 126.289 280.448 125.672 279.822C125.062 279.196 124.758 278.413 124.758 277.474C124.758 276.526 125.058 275.743 125.659 275.125C126.268 274.507 127.021 274.199 127.919 274.199C128.689 274.199 129.315 274.397 129.797 274.795C130.288 275.193 130.606 275.671 130.749 276.23L129.429 276.712C129.345 276.39 129.18 276.12 128.934 275.9C128.697 275.671 128.363 275.557 127.931 275.557ZM133.73 278.921C134.068 279.268 134.479 279.441 134.961 279.441C135.443 279.441 135.85 279.268 136.18 278.921C136.518 278.574 136.687 278.092 136.687 277.474C136.687 276.864 136.518 276.39 136.18 276.052C135.85 275.705 135.443 275.531 134.961 275.531C134.479 275.531 134.068 275.705 133.73 276.052C133.4 276.39 133.234 276.864 133.234 277.474C133.234 278.083 133.4 278.565 133.73 278.921ZM134.961 274.199C135.892 274.199 136.658 274.507 137.259 275.125C137.868 275.743 138.173 276.526 138.173 277.474C138.173 278.422 137.868 279.209 137.259 279.835C136.658 280.453 135.892 280.762 134.961 280.762C134.038 280.762 133.273 280.453 132.663 279.835C132.062 279.209 131.762 278.422 131.762 277.474C131.762 276.526 132.062 275.743 132.663 275.125C133.273 274.507 134.038 274.199 134.961 274.199Z" fill="#032556"/>
<rect x="25.7937" y="291.918" width="247.543" height="34.91" rx="12.6945" fill="#CFE7EB"/>
<path d="M30.8715 345.821C29.6105 345.821 28.5357 345.394 27.6471 344.539C26.7669 343.684 26.3269 342.55 26.3269 341.137C26.3269 339.732 26.7754 338.598 27.6725 337.734C28.5696 336.871 29.6317 336.44 30.8588 336.44C31.9421 336.44 32.8307 336.715 33.5247 337.265C34.2271 337.815 34.6883 338.513 34.9084 339.359L33.4739 339.842C33.33 339.258 33.038 338.784 32.598 338.42C32.1579 338.056 31.5782 337.874 30.8588 337.874C30.0548 337.874 29.3566 338.162 28.7642 338.737C28.1803 339.304 27.8883 340.104 27.8883 341.137C27.8883 342.144 28.1803 342.935 28.7642 343.511C29.3482 344.078 30.0506 344.361 30.8715 344.361C31.5739 344.361 32.1537 344.171 32.6107 343.79C33.0677 343.409 33.3808 342.939 33.5501 342.381L34.9465 342.838C34.7264 343.676 34.261 344.382 33.5501 344.958C32.8476 345.533 31.9548 345.821 30.8715 345.821ZM37.3693 341.86H40.4033C40.3864 341.471 40.2468 341.145 39.9844 340.883C39.7305 340.62 39.3624 340.489 38.88 340.489C38.4399 340.489 38.0845 340.629 37.8136 340.908C37.5428 341.179 37.3947 341.496 37.3693 341.86ZM40.5684 343.472L41.8124 343.866C41.6347 344.433 41.3004 344.903 40.8096 345.275C40.3272 345.639 39.7305 345.821 39.0196 345.821C38.1395 345.821 37.3905 345.52 36.7727 344.92C36.1634 344.319 35.8587 343.515 35.8587 342.508C35.8587 341.56 36.1549 340.781 36.7473 340.172C37.3482 339.563 38.0548 339.258 38.8673 339.258C39.8151 339.258 40.5557 339.55 41.0888 340.134C41.622 340.709 41.8886 341.488 41.8886 342.47C41.8886 342.732 41.8759 342.888 41.8505 342.939H37.3312C37.3482 343.405 37.5174 343.79 37.839 344.094C38.1691 344.399 38.5626 344.551 39.0196 344.551C39.8151 344.551 40.3314 344.192 40.5684 343.472ZM44.9667 345.63H43.4941V336.44H44.9667V345.63ZM51.0515 344.945C50.9076 345.216 50.6706 345.427 50.3406 345.58C50.019 345.732 49.672 345.808 49.2996 345.808C48.5803 345.808 48.009 345.575 47.5859 345.11C47.1712 344.645 46.9638 344.056 46.9638 343.345V339.448H48.4364V343.079C48.4364 343.494 48.5379 343.832 48.7411 344.094C48.9442 344.357 49.2573 344.488 49.6805 344.488C50.0951 344.488 50.4125 344.361 50.6325 344.107C50.861 343.853 50.9753 343.519 50.9753 343.104V339.448H52.4479V344.501C52.4479 344.873 52.469 345.25 52.5113 345.63H51.1022C51.0684 345.444 51.0515 345.216 51.0515 344.945ZM56.0248 345.63H54.5523V336.44H56.0248V345.63ZM57.717 343.955C57.717 343.43 57.8862 343.011 58.2248 342.698C58.5718 342.376 59.0245 342.173 59.5831 342.089L61.1699 341.848C61.4746 341.805 61.6269 341.657 61.6269 341.403C61.6269 341.124 61.5296 340.9 61.3349 340.73C61.1403 340.553 60.8483 340.464 60.459 340.464C60.0866 340.464 59.7904 340.57 59.5704 340.781C59.3504 340.984 59.2234 341.251 59.1896 341.581L57.8439 341.276C57.9032 340.718 58.1698 340.244 58.6437 339.854C59.1176 339.457 59.7185 339.258 60.4463 339.258C61.3434 339.258 62.0035 339.474 62.4267 339.905C62.8583 340.337 63.0741 340.891 63.0741 341.568V344.64C63.0741 345.047 63.0995 345.377 63.1502 345.63H61.7792C61.7369 345.504 61.7158 345.241 61.7158 344.843C61.3095 345.495 60.6748 345.821 59.8116 345.821C59.1853 345.821 58.6775 345.639 58.2882 345.275C57.9074 344.903 57.717 344.463 57.717 343.955ZM60.0909 344.666C60.5479 344.666 60.916 344.543 61.1953 344.298C61.483 344.044 61.6269 343.633 61.6269 343.066V342.787L60.0147 343.028C59.4646 343.121 59.1896 343.4 59.1896 343.866C59.1896 344.086 59.27 344.276 59.4307 344.437C59.5915 344.59 59.8116 344.666 60.0909 344.666ZM68.6705 339.41V340.908C68.5012 340.883 68.3404 340.87 68.1881 340.87C67.0794 340.87 66.5251 341.475 66.5251 342.685V345.63H65.0525V339.448H66.487V340.438C66.6309 340.108 66.8636 339.85 67.1852 339.664C67.5068 339.469 67.8707 339.372 68.277 339.372C68.4124 339.372 68.5435 339.385 68.6705 339.41Z" fill="#032556"/>
<rect x="25.7937" y="356.978" width="247.543" height="34.91" rx="12.6945" fill="#CFE7EB"/>
<path d="M30.8715 410.88C29.6105 410.88 28.5357 410.453 27.6471 409.598C26.7669 408.744 26.3269 407.61 26.3269 406.196C26.3269 404.791 26.7754 403.657 27.6725 402.794C28.5696 401.931 29.6317 401.499 30.8588 401.499C31.9421 401.499 32.8307 401.774 33.5247 402.324C34.2271 402.874 34.6883 403.573 34.9084 404.419L33.4739 404.901C33.33 404.317 33.038 403.843 32.598 403.48C32.1579 403.116 31.5782 402.934 30.8588 402.934C30.0548 402.934 29.3566 403.221 28.7642 403.797C28.1803 404.364 27.8883 405.164 27.8883 406.196C27.8883 407.203 28.1803 407.995 28.7642 408.57C29.3482 409.137 30.0506 409.421 30.8715 409.421C31.5739 409.421 32.1537 409.23 32.6107 408.849C33.0677 408.469 33.3808 407.999 33.5501 407.44L34.9465 407.897C34.7264 408.735 34.261 409.442 33.5501 410.017C32.8476 410.593 31.9548 410.88 30.8715 410.88ZM37.8263 409.04C38.1649 409.387 38.5753 409.56 39.0577 409.56C39.5401 409.56 39.9463 409.387 40.2764 409.04C40.6149 408.693 40.7842 408.21 40.7842 407.593C40.7842 406.983 40.6149 406.509 40.2764 406.171C39.9463 405.824 39.5401 405.65 39.0577 405.65C38.5753 405.65 38.1649 405.824 37.8263 406.171C37.4963 406.509 37.3312 406.983 37.3312 407.593C37.3312 408.202 37.4963 408.684 37.8263 409.04ZM39.0577 404.317C39.9886 404.317 40.7545 404.626 41.3554 405.244C41.9648 405.862 42.2694 406.645 42.2694 407.593C42.2694 408.54 41.9648 409.328 41.3554 409.954C40.7545 410.572 39.9886 410.88 39.0577 410.88C38.1352 410.88 37.3693 410.572 36.76 409.954C36.1591 409.328 35.8587 408.54 35.8587 407.593C35.8587 406.645 36.1591 405.862 36.76 405.244C37.3693 404.626 38.1352 404.317 39.0577 404.317ZM45.3634 407.123V410.69H43.8909V404.508H45.3253V405.333C45.52 404.994 45.7781 404.745 46.0997 404.584C46.4298 404.415 46.781 404.33 47.1533 404.33C47.8812 404.33 48.4355 404.559 48.8163 405.016C49.1972 405.473 49.3876 406.061 49.3876 406.78V410.69H47.915V407.034C47.915 406.619 47.8135 406.289 47.6104 406.044C47.4072 405.79 47.0856 405.663 46.6456 405.663C46.2393 405.663 45.922 405.803 45.6935 406.082C45.4734 406.353 45.3634 406.7 45.3634 407.123ZM53.2447 402.616V404.508H54.5269V405.815H53.2447V408.684C53.2447 408.955 53.3082 409.154 53.4352 409.281C53.5621 409.399 53.761 409.459 54.0318 409.459C54.2011 409.459 54.3703 409.442 54.5396 409.408V410.627C54.3195 410.72 54.0191 410.766 53.6383 410.766C53.0628 410.766 52.61 410.605 52.28 410.284C51.9499 409.954 51.7849 409.501 51.7849 408.926V405.815H50.6424V404.508H50.9597C51.2729 404.508 51.5098 404.419 51.6706 404.241C51.8314 404.064 51.9118 403.831 51.9118 403.543V402.616H53.2447ZM59.7446 404.47V405.968C59.5754 405.942 59.4146 405.93 59.2622 405.93C58.1536 405.93 57.5993 406.535 57.5993 407.745V410.69H56.1267V404.508H57.5612V405.498C57.7051 405.168 57.9378 404.91 58.2594 404.724C58.581 404.529 58.9449 404.432 59.3511 404.432C59.4865 404.432 59.6177 404.444 59.7446 404.47ZM60.8038 409.014C60.8038 408.49 60.9731 408.071 61.3116 407.758C61.6586 407.436 62.1114 407.233 62.6699 407.148L64.2568 406.907C64.5614 406.865 64.7138 406.717 64.7138 406.463C64.7138 406.184 64.6164 405.959 64.4218 405.79C64.2271 405.612 63.9352 405.523 63.5459 405.523C63.1735 405.523 62.8773 405.629 62.6572 405.841C62.4372 406.044 62.3103 406.31 62.2764 406.641L60.9308 406.336C60.99 405.777 61.2566 405.303 61.7305 404.914C62.2045 404.516 62.8053 404.317 63.5332 404.317C64.4302 404.317 65.0904 404.533 65.5135 404.965C65.9451 405.396 66.1609 405.951 66.1609 406.628V409.7C66.1609 410.106 66.1863 410.436 66.2371 410.69H64.8661C64.8238 410.563 64.8026 410.301 64.8026 409.903C64.3964 410.555 63.7617 410.88 62.8984 410.88C62.2722 410.88 61.7644 410.699 61.3751 410.335C60.9943 409.962 60.8038 409.522 60.8038 409.014ZM63.1777 409.725C63.6347 409.725 64.0029 409.603 64.2821 409.357C64.5699 409.103 64.7138 408.693 64.7138 408.126V407.846L63.1016 408.088C62.5515 408.181 62.2764 408.46 62.2764 408.926C62.2764 409.146 62.3568 409.336 62.5176 409.497C62.6784 409.649 62.8984 409.725 63.1777 409.725ZM67.5935 409.014L68.8757 408.659C68.9011 408.955 69.0238 409.205 69.2438 409.408C69.4639 409.611 69.7601 409.713 70.1324 409.713C70.4202 409.713 70.6445 409.645 70.8053 409.509C70.9745 409.374 71.0591 409.205 71.0591 409.002C71.0591 408.646 70.8179 408.418 70.3356 408.316L69.4215 408.113C68.8884 407.995 68.4779 407.775 68.1902 407.453C67.9024 407.131 67.7586 406.751 67.7586 406.31C67.7586 405.769 67.9786 405.303 68.4187 404.914C68.8588 404.516 69.3962 404.317 70.0309 404.317C70.4371 404.317 70.7968 404.377 71.1099 404.495C71.4231 404.614 71.6642 404.77 71.8335 404.965C72.0112 405.151 72.1466 405.333 72.2397 405.511C72.3328 405.688 72.3921 405.866 72.4175 406.044L71.1734 406.399C71.1395 406.162 71.0295 405.951 70.8433 405.765C70.6656 405.57 70.3948 405.473 70.0309 405.473C69.777 405.473 69.5654 405.545 69.3962 405.688C69.2269 405.824 69.1423 405.989 69.1423 406.184C69.1423 406.53 69.3496 406.746 69.7643 406.831L70.7037 407.021C71.2792 407.148 71.7193 407.377 72.0239 407.707C72.3286 408.037 72.4809 408.435 72.4809 408.9C72.4809 409.416 72.2736 409.878 71.8589 410.284C71.4527 410.682 70.8814 410.88 70.1451 410.88C69.722 410.88 69.3411 410.817 69.0026 410.69C68.6726 410.563 68.4102 410.402 68.2156 410.208C68.0294 410.005 67.8813 409.806 67.7713 409.611C67.6697 409.408 67.6105 409.209 67.5935 409.014ZM75.1306 406.92H78.1646C78.1477 406.53 78.008 406.205 77.7457 405.942C77.4918 405.68 77.1237 405.549 76.6413 405.549C76.2012 405.549 75.8457 405.688 75.5749 405.968C75.3041 406.239 75.156 406.556 75.1306 406.92ZM78.3296 408.532L79.5737 408.926C79.396 409.493 79.0617 409.962 78.5708 410.335C78.0884 410.699 77.4918 410.88 76.7809 410.88C75.9008 410.88 75.1518 410.58 74.534 409.979C73.9246 409.378 73.62 408.574 73.62 407.567C73.62 406.619 73.9162 405.841 74.5086 405.231C75.1095 404.622 75.8161 404.317 76.6286 404.317C77.5764 404.317 78.3169 404.609 78.8501 405.193C79.3833 405.769 79.6499 406.547 79.6499 407.529C79.6499 407.791 79.6372 407.948 79.6118 407.999H75.0925C75.1095 408.464 75.2787 408.849 75.6003 409.154C75.9304 409.459 76.3239 409.611 76.7809 409.611C77.5764 409.611 78.0927 409.251 78.3296 408.532ZM82.728 407.123V410.69H81.2554V404.508H82.6899V405.333C82.8846 404.994 83.1427 404.745 83.4643 404.584C83.7943 404.415 84.1456 404.33 84.5179 404.33C85.2457 404.33 85.8001 404.559 86.1809 405.016C86.5617 405.473 86.7522 406.061 86.7522 406.78V410.69H85.2796V407.034C85.2796 406.619 85.178 406.289 84.9749 406.044C84.7718 405.79 84.4502 405.663 84.0101 405.663C83.6039 405.663 83.2866 405.803 83.0581 406.082C82.838 406.353 82.728 406.7 82.728 407.123ZM81.9917 403.632L81.979 403.403C81.979 402.929 82.0975 402.57 82.3345 402.324C82.5799 402.07 82.8973 401.944 83.2866 401.944C83.5658 401.944 83.862 402.037 84.1752 402.223L84.3021 402.299C84.5391 402.443 84.721 402.515 84.848 402.515C85.1103 402.515 85.2415 402.329 85.2415 401.956H86.2063V402.172C86.2063 402.646 86.0836 403.014 85.8382 403.276C85.6012 403.53 85.2923 403.657 84.9115 403.657C84.6322 403.657 84.3317 403.56 84.0101 403.365L83.8832 403.289C83.6547 403.154 83.4727 403.086 83.3373 403.086C83.0834 403.086 82.9565 403.268 82.9565 403.632H81.9917ZM88.3624 409.014C88.3624 408.49 88.5316 408.071 88.8702 407.758C89.2172 407.436 89.6699 407.233 90.2285 407.148L91.8153 406.907C92.12 406.865 92.2723 406.717 92.2723 406.463C92.2723 406.184 92.175 405.959 91.9803 405.79C91.7857 405.612 91.4937 405.523 91.1044 405.523C90.732 405.523 90.4358 405.629 90.2158 405.841C89.9958 406.044 89.8688 406.31 89.835 406.641L88.4893 406.336C88.5486 405.777 88.8152 405.303 89.2891 404.914C89.763 404.516 90.3639 404.317 91.0917 404.317C91.9888 404.317 92.6489 404.533 93.0721 404.965C93.5037 405.396 93.7195 405.951 93.7195 406.628V409.7C93.7195 410.106 93.7449 410.436 93.7956 410.69H92.4246C92.3823 410.563 92.3612 410.301 92.3612 409.903C91.9549 410.555 91.3202 410.88 90.457 410.88C89.8307 410.88 89.3229 410.699 88.9336 410.335C88.5528 409.962 88.3624 409.522 88.3624 409.014ZM90.7363 409.725C91.1933 409.725 91.5614 409.603 91.8407 409.357C92.1284 409.103 92.2723 408.693 92.2723 408.126V407.846L90.6601 408.088C90.11 408.181 89.835 408.46 89.835 408.926C89.835 409.146 89.9154 409.336 90.0762 409.497C90.2369 409.649 90.457 409.725 90.7363 409.725Z" fill="#032556"/>
<rect x="25.7937" y="422.037" width="247.543" height="34.91" rx="12.6945" fill="#CFE7EB"/>
<path d="M6.57455 3.36609H292.202V93.0213H6.57455V3.36609Z" fill="#032556"/>
<path d="M121.57 75.8351L121.697 77.3584C121.697 77.3584 121.285 77.4695 120.634 77.4695C117.524 77.4695 118.396 73.6294 115.921 73.6294H115.318V77.3584H113.319V66.8854H116.762C119.396 66.8854 120.84 67.9327 120.84 70.3288C120.84 71.7887 120.015 72.7884 118.65 73.2803C119.856 73.8833 119.872 75.8668 121.253 75.8668C121.427 75.8668 121.57 75.8351 121.57 75.8351ZM115.318 72.1854H116.492C117.873 72.1854 118.857 71.5348 118.857 70.3447C118.857 69.1228 118.063 68.4881 116.651 68.4881H115.318V72.1854ZM126.757 75.9461C127.836 75.9461 128.424 75.4383 128.741 75.0575L129.725 76.1207C129.154 76.8665 128.059 77.4536 126.551 77.4536C124.06 77.4536 122.552 75.8827 122.552 73.6294C122.552 71.3761 124.044 69.7734 126.345 69.7734C128.535 69.7734 129.788 71.2809 129.788 73.2961C129.788 73.7722 129.709 74.0737 129.709 74.0737H124.504C124.679 75.1845 125.44 75.9461 126.757 75.9461ZM126.345 71.2809C125.377 71.2809 124.679 71.9315 124.504 72.9788H127.963C127.948 71.995 127.329 71.2809 126.345 71.2809ZM135.737 76.1048C137.546 76.1048 138.752 76.8189 138.752 78.2788C138.752 79.5165 137.815 80.6748 134.721 80.6748C131.992 80.6748 130.754 79.8814 130.754 78.6913C130.754 77.9455 131.23 77.4377 132.024 77.168C131.516 76.8824 131.198 76.4222 131.198 75.8033C131.198 75.1051 131.674 74.6449 132.246 74.4545C131.706 73.9626 131.405 73.312 131.405 72.5186C131.405 70.8842 132.722 69.7893 134.689 69.7893C135.499 69.7893 136.197 69.9638 136.736 70.2812C137.26 70.0114 137.466 69.3291 137.466 68.4881L138.958 68.8689C138.958 70.1225 138.053 70.7731 137.45 70.9001C137.815 71.3285 138.006 71.8839 138.006 72.5186C138.006 74.153 136.689 75.2638 134.705 75.2638C134.197 75.2638 133.737 75.1845 133.341 75.0575C132.96 75.1369 132.753 75.2955 132.753 75.5494C132.753 75.9779 133.166 76.1048 134.086 76.1048H135.737ZM133.245 72.5186C133.23 73.2961 133.801 73.8198 134.689 73.8198C135.594 73.8357 136.181 73.312 136.197 72.5345C136.197 71.7569 135.61 71.2333 134.721 71.2174C133.833 71.2174 133.245 71.7411 133.245 72.5186ZM134.721 79.2784C136.356 79.2784 136.959 78.977 136.959 78.3581C136.959 77.7551 136.482 77.5964 135.515 77.5964H134.023C132.865 77.5964 132.5 77.9297 132.5 78.3898C132.5 78.9928 133.118 79.2784 134.721 79.2784ZM141.922 68.742L140.192 68.8213L141.112 66.2189H143.477L141.922 68.742ZM140.129 77.3584V69.8686L142.064 69.8051V77.3584H140.129ZM148.343 72.5027C148.358 72.4393 148.374 72.3123 148.374 72.2012C148.374 71.5506 147.851 71.1381 147.026 71.1381C146.232 71.1381 145.804 71.503 145.804 72.0108C145.804 73.5818 150.215 72.3758 150.247 75.2479C150.247 76.5967 149.009 77.4536 147.026 77.4536C144.899 77.4536 143.884 76.5491 143.614 76.327L144.582 75.1369C144.788 75.3273 145.851 76.0413 146.978 76.0413C147.851 76.0413 148.279 75.7557 148.279 75.3273C148.279 74.0261 143.963 74.8354 143.963 72.0902C143.963 70.6938 145.201 69.7734 147.089 69.7734C148.882 69.7734 150.12 70.662 150.12 71.8839C150.12 72.1854 150.056 72.3917 150.056 72.3917L148.343 72.5027ZM156.898 75.4066L157.454 76.93C157.454 76.93 156.676 77.4536 155.312 77.4536C153.36 77.4536 152.408 76.4063 152.408 74.3276V71.3602H151.249V69.8686H152.455V67.7264L154.344 67.6471V69.8686H157.057V71.3602H154.344V74.2641C154.344 75.3273 154.74 75.8192 155.629 75.8192C156.438 75.8192 156.898 75.4066 156.898 75.4066ZM162.476 69.7734C162.873 69.7734 163.222 69.8369 163.539 69.9638L163.047 71.8521C162.825 71.6935 162.571 71.6141 162.238 71.6141C161.397 71.6141 160.619 72.2965 160.619 73.6452V77.3584H158.683V69.8686L160.175 69.8051C160.318 70.3288 160.413 71.1698 160.413 71.4872H160.461C160.746 70.5351 161.365 69.7734 162.476 69.7734ZM171.725 75.8192L171.804 77.3267C171.804 77.3267 171.376 77.4377 170.852 77.4377C169.884 77.4377 169.344 77.0569 169.218 76.2476C168.995 76.6761 168.361 77.4536 166.758 77.4536C165.124 77.4536 164.219 76.6285 164.219 75.3907C164.219 73.5976 166.044 73.074 168.995 73.0264H169.122V72.6614C169.122 71.8204 168.615 71.265 167.615 71.265C166.694 71.265 166.187 71.63 166.187 72.2488C166.187 72.3758 166.218 72.471 166.25 72.5503L164.536 72.836C164.536 72.836 164.441 72.5345 164.441 72.1378C164.441 70.7255 165.663 69.7734 167.678 69.7734C169.821 69.7734 171.011 70.8842 171.011 72.709V75.3431C171.011 75.724 171.138 75.8509 171.455 75.8509C171.55 75.8509 171.645 75.8351 171.725 75.8192ZM167.266 75.9779C168.44 75.9779 169.122 75.359 169.122 74.7243V74.0896H168.995C166.964 74.1213 166.107 74.4387 166.107 75.1845C166.107 75.6922 166.52 75.9779 167.266 75.9779ZM178.181 75.4066L178.736 76.93C178.736 76.93 177.959 77.4536 176.594 77.4536C174.642 77.4536 173.69 76.4063 173.69 74.3276V71.3602H172.532V69.8686H173.738V67.7264L175.626 67.6471V69.8686H178.34V71.3602H175.626V74.2641C175.626 75.3273 176.023 75.8192 176.911 75.8192C177.721 75.8192 178.181 75.4066 178.181 75.4066ZM183.666 75.9461C184.745 75.9461 185.332 75.4383 185.649 75.0575L186.633 76.1207C186.062 76.8665 184.967 77.4536 183.46 77.4536C180.968 77.4536 179.461 75.8827 179.461 73.6294C179.461 71.3761 180.952 69.7734 183.253 69.7734C185.443 69.7734 186.697 71.2809 186.697 73.2961C186.697 73.7722 186.617 74.0737 186.617 74.0737H181.413C181.587 75.1845 182.349 75.9461 183.666 75.9461ZM183.253 71.2809C182.285 71.2809 181.587 71.9315 181.413 72.9788H184.872C184.856 71.995 184.237 71.2809 183.253 71.2809Z" fill="#EBFDFF"/>
<path d="M33.7148 66.0932C34.0246 65.7834 34.0246 65.281 33.7148 64.9712C33.4049 64.6613 32.9026 64.6613 32.5927 64.9712L27.0389 70.525C26.729 70.8349 26.729 71.3372 27.0389 71.6471L32.5927 77.2009C32.9026 77.5108 33.4049 77.5108 33.7148 77.2009C34.0246 76.8911 34.0246 76.3887 33.7148 76.0789L29.5154 71.8794L38.7076 71.8794C39.1458 71.8794 39.501 71.5242 39.501 71.086C39.501 70.6479 39.1458 70.2926 38.7076 70.2926L29.5154 70.2926L33.7148 66.0932Z" fill="#F7F7F7"/>
</g>
<rect x="104.077" y="13.198" width="90.6211" height="27.4609" rx="13.7305" fill="#060606"/>
</g>
<defs>
<clipPath id="clip0_176_8610">
<rect x="6.86481" y="7.15625" width="285.045" height="616.323" rx="38.4453" fill="white"/>
</clipPath>
<clipPath id="clip1_176_8610">
<rect width="287.452" height="623.771" fill="white" transform="translate(5.77115 3.36609)"/>
</clipPath>
<clipPath id="clip2_176_8610">
<rect width="285.627" height="634.727" fill="white" transform="translate(6.57455 3.36609)"/>
</clipPath>
</defs>
</svg>
